<?xml version="1.0" encoding="UTF-8"?>
<svg width="28px" height="32px" viewBox="0 0 28 32" version="1.1" xmlns="http://www.w3.org/2000/svg" xmlns:xlink="http://www.w3.org/1999/xlink">
    <!-- Generator: Sketch 44.1 (41455) - http://www.bohemiancoding.com/sketch -->
    <title>Group 2</title>
    <desc>Created with Sketch.</desc>
    <defs></defs>
    <g id="B_首页" stroke="none" stroke-width="1" fill="none" fill-rule="evenodd">
        <g id="B_1.1首页下拉菜单-确定" transform="translate(-531.000000, -149.000000)">
            <g id="下拉" transform="translate(497.000000, 120.000000)">
                <g id="Group-5" transform="translate(16.000000, 10.000000)">
                    <g id="Group-2" transform="translate(16.000000, 19.000000)">
                        <rect id="Rectangle-12-Copy-3" transform="translate(16.000000, 16.000000) scale(1, -1) translate(-16.000000, -16.000000) " x="0" y="0" width="32" height="32"></rect>
                        <path d="M26.421341,10.7220779 C26.421341,4.81154401 21.7516342,0.0831168831 15.9145006,0.0831168831 C10.0773671,0.0831168831 5.40766024,4.81154401 5.40766024,10.7220779 C5.40766024,14.6230303 7.50902832,18.1693506 10.7778231,19.9425108 C6.34160161,21.715671 2.95606415,25.6166234 2.02212278,30.5814719 C1.90538011,31.1725253 2.25560812,31.8817893 2.95606415,32 L3.18954949,32 C3.77326285,32 4.24023353,31.645368 4.3569762,31.0543146 C5.40766024,25.4984127 10.1941098,21.4792496 15.797758,21.361039 L16.0312433,21.361039 C21.7516342,21.361039 26.421341,16.5144012 26.421341,10.7220779 Z M7.74251366,10.7220779 C7.74251366,6.11186147 11.3615365,2.44733045 15.9145006,2.44733045 C20.4674648,2.44733045 24.0864876,6.11186147 24.0864876,10.7220779 C24.0864876,15.2140837 20.4674648,18.8786147 16.0312433,18.9968254 L15.6810153,18.9968254 C11.2447938,18.760404 7.74251366,15.095873 7.74251366,10.7220779 Z M28.7561944,25.9712554 L26.421341,25.9712554 L26.421341,23.6070418 C26.421341,22.8977778 25.9543703,22.4249351 25.2539143,22.4249351 C24.5534583,22.4249351 24.0864876,22.8977778 24.0864876,23.6070418 L24.0864876,25.9712554 L21.7516342,25.9712554 C21.0511782,25.9712554 20.5842075,26.4440981 20.5842075,27.1533622 C20.5842075,27.8626263 21.0511782,28.335469 21.7516342,28.335469 L24.0864876,28.335469 L24.0864876,30.6996825 C24.0864876,31.4089466 24.5534583,31.8817893 25.2539143,31.8817893 C25.9543703,31.8817893 26.421341,31.4089466 26.421341,30.6996825 L26.421341,28.335469 L28.7561944,28.335469 C29.4566505,28.335469 29.9236212,27.8626263 29.9236212,27.1533622 C29.9236212,26.4440981 29.4566505,25.9712554 28.7561944,25.9712554 L28.7561944,25.9712554 Z" id="添加好友" fill="#666666"></path>
                    </g>
                </g>
            </g>
        </g>
    </g>
</svg>