<?xml version="1.0" encoding="UTF-8"?>
<svg width="72px" height="72px" viewBox="0 0 72 72" version="1.1" xmlns="http://www.w3.org/2000/svg" xmlns:xlink="http://www.w3.org/1999/xlink">
    <!-- Generator: Sketch 44.1 (41455) - http://www.bohemiancoding.com/sketch -->
    <title>Group 2</title>
    <desc>Created with Sketch.</desc>
    <defs>
        <rect id="path-1" x="0" y="0" width="72" height="72"></rect>
    </defs>
    <g id="M_好友" stroke="none" stroke-width="1" fill="none" fill-rule="evenodd">
        <g id="M_1.5添加好友" transform="translate(-20.000000, -260.000000)">
            <rect id="Rectangle-2-Copy-2" fill="#FAFAFA" x="0" y="0" width="750" height="1334"></rect>
            <g id="Group-5-Copy-2" transform="translate(0.000000, 239.000000)">
                <g id="Group-4" fill="#FFFFFF">
                    <rect id="Rectangle-3-Copy" x="0" y="0" width="750" height="110"></rect>
                </g>
                <g id="Group-3" transform="translate(20.000000, 17.000000)">
                    <g id="Group-2" transform="translate(0.000000, 4.000000)">
                        <mask id="mask-2" fill="white">
                            <use xlink:href="#path-1"></use>
                        </mask>
                        <use id="Rectangle-9" fill="#F5A623" xlink:href="#path-1"></use>
                        <path d="M18.1730475,17.0655268 L33.3610597,17.0655268 C34.9037856,17.2173878 34.5317467,19.9008829 34.5317467,21.6448049 L34.5317467,29.9468317 C34.5317467,31.7500707 34.8753666,33.9613927 33.6643654,34.4739293 C32.8776127,34.8061049 30.7613691,34.5735634 29.7399976,34.5735634 L21.6874689,34.5735634 C19.8271815,34.5735634 17.2867357,35.0125098 17,33.4156756 L17,18.2234146 C17.2085603,17.6563341 17.5734714,17.2482512 18.1730475,17.0655268 Z M20.2608258,20.4869634 L20.2608258,31.3039878 L31.2187576,31.3039878 L31.2187576,20.3351024 L20.312989,20.3351024 C20.2537442,20.3446024 20.2561048,20.4157829 20.2608258,20.4869634 Z M38.5579878,17.0655268 L53.746,17.0655268 C54.3645067,17.2932951 54.7887089,17.7109244 54.916687,18.4250927 L54.916687,33.2164073 C54.7768599,33.8308951 54.4522168,34.3552951 53.8455591,34.5237463 C52.8549671,34.7989683 51.207961,34.5735634 50.0230646,34.5735634 L42.2264458,34.5735634 C41.0510378,34.5735634 39.3068794,34.8179683 38.3541949,34.5237463 C37.0057734,34.1085268 37.3849403,31.510439 37.3849403,29.6953366 L37.3849403,21.9461634 C37.3849403,19.8487024 36.9181096,17.3597488 38.5579878,17.0655268 Z M40.648173,20.4869634 L40.648173,31.3039878 L51.6061048,31.3039878 L51.6061048,20.3351024 L40.6979294,20.3351024 C40.6386845,20.3446024 40.6434056,20.4157829 40.648173,20.4869634 Z M25.2563678,23.6568585 C26.7825238,23.3721366 27.9816297,24.3900268 28.0076882,25.7685463 C28.0408745,27.5883756 26.1592497,28.5872659 24.6946991,27.8304171 C23.0192741,26.9667512 23.1306358,24.053078 25.2563678,23.6568585 Z M45.6413082,23.6568585 C49.2363118,22.9948707 49.1675786,28.6134024 45.6413082,28.0344585 C43.3971328,27.6643293 43.326039,24.0839415 45.6413082,23.6568585 Z M33.2567795,55 L18.2228039,55 C17.5995761,54.8101854 17.1777345,54.4210561 17,53.7922951 L17,38.6498512 C17.1493155,38.2061317 17.4905286,37.6889146 18.019011,37.5417805 C19.0166845,37.2641951 20.6471206,37.4919634 21.8415055,37.4919634 L29.6381242,37.4919634 C30.7898343,37.4919634 32.46762,37.2381049 33.5103289,37.5417805 C34.9227625,37.9522732 34.5293398,40.5076341 34.5293398,42.3203732 L34.5293398,50.318678 C34.5317467,52.2761415 34.9583094,54.8244122 33.2567795,55 Z M20.2608258,40.9133537 L20.2608258,51.7304244 L31.2187576,51.7304244 L31.2187576,40.761539 L20.312989,40.761539 C20.2537442,40.7709927 20.2561048,40.8421732 20.2608258,40.9133537 Z M54.916687,38.8491195 L54.916687,43.0749049 C54.7981973,44.500878 54.9001169,46.1427561 54.8669306,47.6517732 L44.0109184,47.6517732 L44.0109184,45.1865927 C42.9919074,45.0679585 41.7524872,45.1699561 40.648173,45.1367293 C40.5296833,48.323261 40.6315566,51.728061 40.5960097,54.9976366 L38.6077905,54.9976366 C36.8991328,54.6583244 37.3849403,52.1290537 37.3849403,50.117 L37.3849403,42.3180098 C37.3849403,41.1458951 37.14324,39.3877463 37.434743,38.4434 C37.783084,37.318739 39.2902631,37.4872366 40.7974421,37.4872366 L48.186475,37.4872366 L48.186475,44.1782024 L51.6013374,44.1782024 C51.6345238,41.9644707 51.5326041,39.617878 51.6510938,37.4872366 C53.2980999,37.3946927 54.8195347,37.4184195 54.916687,38.8491195 Z M25.5099172,44.0310683 C27.1403532,43.8531171 28.4863678,45.4001341 27.8536516,47.1013293 C26.9768283,49.4597854 22.7870158,48.5723927 23.5714543,45.5923122 C23.7918173,44.7666 24.4174519,44.1520659 25.5099172,44.0310683 Z M47.6793301,55 L44.0109184,55 C44.0440585,53.7092512 43.9421851,52.283278 44.0630353,51.0755732 L47.6816906,51.0755732 L47.6793301,55 Z M54.916687,51.0755732 L54.916687,53.6404341 C54.7744994,54.3546024 54.3502972,54.7935488 53.6938831,55 L51.0941924,55 C51.1273788,53.7092512 51.0255055,52.283278 51.1463557,51.0755732 C52.4023459,51.0755732 53.6606967,51.0755732 54.916687,51.0755732 L54.916687,51.0755732 Z" id="二维码" fill="#FFFFFF" mask="url(#mask-2)"></path>
                    </g>
                </g>
            </g>
        </g>
    </g>
</svg>