<?xml version="1.0" encoding="UTF-8"?>
<svg width="48px" height="48px" viewBox="0 0 48 48" version="1.1" xmlns="http://www.w3.org/2000/svg" xmlns:xlink="http://www.w3.org/1999/xlink">
    <!-- Generator: Sketch 44.1 (41455) - http://www.bohemiancoding.com/sketch -->
    <title>me_</title>
    <desc>Created with Sketch.</desc>
    <defs>
        <rect id="path-1" x="0" y="0" width="48" height="48" rx="24"></rect>
    </defs>
    <g id="B_首页" stroke="none" stroke-width="1" fill="none" fill-rule="evenodd">
        <g id="B_1.1首页-切图" transform="translate(-651.000000, -1244.000000)">
            <g id="me" transform="translate(651.000000, 1244.000000)">
                <circle id="Oval" stroke="#979797" stroke-width="2" cx="24" cy="24" r="23"></circle>
                <g id="Rectangle-7" stroke-width="1" fill-rule="evenodd">
                    <mask id="mask-2" fill="white">
                        <use xlink:href="#path-1"></use>
                    </mask>
                    <g id="Mask"></g>
                    <path d="M17.6097319,40.5477355 L8.04254888,45.0952263 C6.3978731,45.8769766 5,48.0872343 5,49.9080099 L5,51.8783932 C5,52.9821028 5.8946678,53.876852 6.99821673,53.876852 L42.0017833,53.876852 C43.1067612,53.876852 44,52.9852183 44,51.8850667 L44,50.1739262 C44,48.3651198 42.5971549,46.1895318 40.943298,45.4376564 L30.5687677,40.7210761 C30.1988585,40.5463114 29.7134736,40.1947663 29.2436002,39.6178198 C28.4895375,38.6919242 28.0420299,37.466325 28.0420299,35.9417099 C28.0420299,35.4874374 28.1387095,35.0438254 28.3225595,34.5994213 C28.5738646,33.9919637 28.9543117,33.428323 29.6019121,32.6276159 C29.7692967,32.420658 30.387934,31.6743534 30.4057468,31.6526897 C30.7366149,31.2502905 30.9939492,30.9258593 31.2419271,30.5936738 C33.0887483,28.1197143 34.0445095,25.5750028 34.0445095,21.9624817 C34.0445095,21.9837634 33.9983762,21.4387137 33.9642795,21.0489407 L33.9620785,21.0237875 C33.9297918,20.6559294 33.9297918,20.6559294 33.9028733,20.351432 C33.8813391,20.1084486 33.8813391,20.1084486 33.8758313,20.0465474 C33.4405892,15.0690737 29.0036143,11 24.0058214,11 C19.0177898,11 14.6466073,15.0663381 14.2849134,20.0503933 L14.2848855,20.0507772 C14.2804137,20.1120707 14.2804137,20.1120707 14.2625166,20.3577131 C14.2401453,20.6650181 14.2401453,20.6650181 14.2133032,21.0346029 L14.2127154,21.042703 C14.2081373,21.1057995 14.1443147,21.9949893 14.1443147,21.9624817 C14.1443147,25.5923412 15.0752857,28.1246906 16.879567,30.5841555 C17.1107761,30.8993229 17.3517222,31.2092523 17.6562378,31.5873719 C17.732453,31.682009 18.2611217,32.3320361 18.4075995,32.515712 C19.0183013,33.2815019 19.3816796,33.8131717 19.6416987,34.3823007 C19.8778172,34.8991162 20.00222,35.4118297 20.00222,35.9417099 C20.00222,37.5148756 19.5913485,38.7205436 18.882229,39.5752194 C18.4456593,40.101401 17.9846298,40.4050988 17.6097319,40.5477355 Z" stroke="#A0A0A0" stroke-width="2" mask="url(#mask-2)"></path>
                </g>
            </g>
        </g>
    </g>
</svg>