<?xml version="1.0" encoding="UTF-8"?>
<svg width="8px" height="37px" viewBox="0 0 8 37" version="1.1" xmlns="http://www.w3.org/2000/svg" xmlns:xlink="http://www.w3.org/1999/xlink">
    <!-- Generator: Sketch 44.1 (41455) - http://www.bohemiancoding.com/sketch -->
    <title>解除</title>
    <desc>Created with Sketch.</desc>
    <defs></defs>
    <g id="F_卡包" stroke="none" stroke-width="1" fill="none" fill-rule="evenodd">
        <g id="F_切图" transform="translate(-662.000000, -342.000000)" fill="#A3A3A3">
            <path d="M651.6,364.2 C649.611775,364.2 648,362.588225 648,360.6 C648,358.611775 649.611775,357 651.6,357 C653.588225,357 655.2,358.611775 655.2,360.6 C655.2,362.588225 653.588225,364.2 651.6,364.2 Z M665.6,364.2 C663.611775,364.2 662,362.588225 662,360.6 C662,358.611775 663.611775,357 665.6,357 C667.588225,357 669.2,358.611775 669.2,360.6 C669.2,362.588225 667.588225,364.2 665.6,364.2 Z M680.4,364.2 C678.411775,364.2 676.8,362.588225 676.8,360.6 C676.8,358.611775 678.411775,357 680.4,357 C682.388225,357 684,358.611775 684,360.6 C684,362.588225 682.388225,364.2 680.4,364.2 Z" id="Combined-Shape" transform="translate(666.000000, 360.600000) rotate(-270.000000) translate(-666.000000, -360.600000) "></path>
        </g>
    </g>
</svg>