<?xml version="1.0" encoding="UTF-8"?>
<svg width="44px" height="35px" viewBox="0 0 44 35" version="1.1" xmlns="http://www.w3.org/2000/svg" xmlns:xlink="http://www.w3.org/1999/xlink">
    <!-- Generator: Sketch 44.1 (41455) - http://www.bohemiancoding.com/sketch -->
    <title>蓝色信用卡</title>
    <desc>Created with Sketch.</desc>
    <defs></defs>
    <g id="J_现金账户" stroke="none" stroke-width="1" fill="none" fill-rule="evenodd">
        <g id="J_1.1-现金账户-未绑定银行卡-Copy" transform="translate(-577.000000, -353.000000)" fill="#29B8F1">
            <path d="M585.555529,375.003358 L600.22217,375.003358 C600.89707,375.003358 601.444453,374.456641 601.444453,373.780962 C601.444453,373.105358 600.89707,372.558566 600.22217,372.558566 L585.555529,372.558566 C584.880628,372.558566 584.333321,373.105358 584.333321,373.780962 C584.333321,374.456641 584.880628,375.003358 585.555529,375.003358 Z M585.555529,379.893093 L595.33334,379.893093 C596.008165,379.893093 596.555547,379.346301 596.555547,378.670622 C596.555547,377.996142 596.008165,377.448226 595.33334,377.448226 L585.555529,377.448226 C584.880628,377.448226 584.333321,377.996142 584.333321,378.670622 C584.333321,379.346226 584.880628,379.893093 585.555529,379.893093 Z M607.555566,379.893093 L612.444471,379.893093 C613.119297,379.893093 613.666679,379.346301 613.666679,378.670622 L613.666679,373.781037 C613.666679,373.105358 613.119297,372.55864 612.444471,372.55864 L607.555566,372.55864 C606.880666,372.55864 606.333358,373.105358 606.333358,373.781037 L606.333358,378.670622 C606.333358,379.346226 606.880666,379.893093 607.555566,379.893093 Z M618.555585,353 L579.444415,353 C578.094465,353 577,354.094709 577,355.444793 L577,384.782678 C577,386.132837 578.094465,387.227471 579.444415,387.227471 L618.555585,387.227471 C619.905535,387.227471 621,386.132837 621,384.782678 L621,355.444793 C621,354.094709 619.905535,353 618.555585,353 Z M579.444415,384.782678 L618.555585,384.782678 L618.555585,367.668905 L579.444415,367.668905 L579.444415,384.782678 Z M579.444415,360.334453 L618.555585,360.334453 L618.555585,355.444793 L579.444415,355.444793 L579.444415,360.334453 Z" id="蓝色信用卡"></path>
        </g>
    </g>
</svg>