<?xml version="1.0" encoding="UTF-8"?>
<svg width="28px" height="28px" viewBox="0 0 28 28" version="1.1" xmlns="http://www.w3.org/2000/svg" xmlns:xlink="http://www.w3.org/1999/xlink">
    <!-- Generator: Sketch 44.1 (41455) - http://www.bohemiancoding.com/sketch -->
    <title>取消搜索</title>
    <desc>Created with Sketch.</desc>
    <defs></defs>
    <g id="F_卡包" stroke="none" stroke-width="1" fill="none" fill-rule="evenodd">
        <g id="F_切图" transform="translate(-573.000000, -161.000000)">
            <g id="关闭" transform="translate(573.000000, 161.000000)">
                <path d="M14.0076151,27.9893631 C6.30417852,27.9893631 0.0350292887,21.712905 0.0350292887,13.9972626 C0.0350292887,6.28306704 6.30402232,0.0061396648 14.0076151,0.0061396648 C21.7112469,0.0061396648 27.9800446,6.28306704 27.9800446,13.9972626 C27.9800446,21.712905 21.7110907,27.9893631 14.0076151,27.9893631" id="Fill-1" fill="#999999"></path>
                <path d="M18.7220028,19.4395084 C18.5310014,19.4403296 18.3476151,19.3648547 18.2123794,19.2298212 L8.78235425,9.78822905 C8.51149233,9.5047486 8.51641283,9.05647486 8.79348396,8.77905587 C9.07059414,8.50163687 9.51824268,8.4967486 9.8012887,8.76806704 L19.2312748,18.2098156 C19.3663933,18.3450838 19.4423096,18.5285698 19.4423096,18.7199162 C19.4423096,18.9112235 19.3663933,19.0947095 19.2312748,19.2299777 C19.0961172,19.3648939 18.912848,19.4403296 18.7220028,19.4395084" id="Fill-2" fill="#FFFFFF"></path>
                <path d="M9.29182148,19.4395084 C9.10089819,19.4402905 8.91755091,19.3648156 8.78235425,19.2298212 C8.50118271,18.9480615 8.50118271,18.491419 8.78235425,18.2096592 L18.2123794,8.76791061 C18.4937071,8.48618994 18.9497908,8.48618994 19.2311185,8.76791061 C19.5124463,9.04963128 19.5124463,9.50639106 19.2311185,9.78807263 L9.8011325,19.2298212 C9.666053,19.3648939 9.48270572,19.4403687 9.29182148,19.4395084" id="Fill-3" fill="#FFFFFF"></path>
            </g>
        </g>
    </g>
</svg>