<?xml version="1.0" encoding="UTF-8"?>
<svg width="69px" height="69px" viewBox="0 0 69 69" version="1.1" xmlns="http://www.w3.org/2000/svg" xmlns:xlink="http://www.w3.org/1999/xlink">
    <!-- Generator: Sketch 44.1 (41455) - http://www.bohemiancoding.com/sketch -->
    <title>Oval 2</title>
    <desc>Created with Sketch.</desc>
    <defs>
        <polygon id="path-1" points="0.536663793 49.4773197 50.4824239 49.4773197 50.4824239 0.0287599062 0.536663793 0.0287599062"></polygon>
    </defs>
    <g id="J_现金账户" stroke="none" stroke-width="1" fill="none" fill-rule="evenodd">
        <g id="J_1.1-现金账户-未绑定银行卡-Copy" transform="translate(-611.000000, -533.000000)">
            <ellipse id="Oval-2" fill="#FCE6DB" cx="645.404432" cy="567.378378" rx="34.4044321" ry="34.3783784"></ellipse>
            <g id="Group-3" transform="translate(620.000000, 542.000000)">
                <mask id="mask-2" fill="white">
                    <use xlink:href="#path-1"></use>
                </mask>
                <g id="Clip-2"></g>
                <path d="M26.5303178,34.2414673 L26.5303178,38.0409399 L38.9790228,38.0409399 L38.9790228,34.2414673 L38.9790228,30.4419946 L38.9790228,26.6403403 L35.136109,26.6403403 L31.3196373,26.6403403 L31.3196373,22.8452311 L35.136109,22.8452311 L38.9790228,22.8452311 L38.9790228,19.0457585 L38.9790228,15.2408316 L38.9790228,11.9377012 L38.9790228,11.4402681 L26.5303178,11.4402681 L26.5303178,15.2408316 L35.136109,15.2408316 L35.136109,19.0457585 L27.465706,19.0457585 L27.465706,19.5366465 L27.465706,22.8452311 L27.465706,26.6403403 L27.465706,30.4419946 L31.3482828,30.4419946 L35.136109,30.4419946 L35.136109,34.2414673 L26.5303178,34.2414673 Z M4.40051089,24.7498763 C4.40051089,13.2161916 13.85355,3.8489589 25.5078912,3.8489589 C37.1611307,3.8489589 46.608661,13.2161916 46.608661,24.7498763 C46.608661,36.2868337 37.1611307,45.6442486 25.5078912,45.6442486 C13.85355,45.6442486 4.40051089,36.2868337 4.40051089,24.7498763 L4.40051089,24.7498763 Z M0.536663793,24.7498763 C0.536663793,11.0901014 11.7084373,0.0287599062 25.5078912,0.0287599062 C39.3018364,0.0287599062 50.4824239,11.0901014 50.4824239,24.7498763 C50.4824239,38.4063787 39.3018364,49.4775379 25.5078912,49.4775379 C11.7084373,49.4775379 0.536663793,38.4063787 0.536663793,24.7498763 L0.536663793,24.7498763 Z M24.5945381,15.2255595 L24.5945381,11.424996 L12.1304086,11.424996 L12.1304086,15.2255595 L12.1304086,19.026123 L12.1304086,22.8332317 L15.9667119,22.8332317 L19.7699626,22.8332317 L19.7699626,26.6337951 L15.9667119,26.6337951 L12.1304086,26.6337951 L12.1304086,30.4365403 L12.1304086,34.2294678 L12.1304086,37.533689 L12.1304086,38.0311221 L24.5945381,38.0311221 L24.5945381,34.2294678 L15.9667119,34.2294678 L15.9667119,30.4365403 L23.6360132,30.4365403 L23.6360132,29.9314712 L23.6360132,26.6337951 L23.6360132,22.8332317 L23.6360132,19.026123 L19.754538,19.026123 L15.9667119,19.026123 L15.9667119,15.2255595 L24.5945381,15.2255595 Z" id="Fill-1" fill="#F2726D" mask="url(#mask-2)"></path>
            </g>
        </g>
    </g>
</svg>