<?xml version="1.0" encoding="UTF-8"?>
<svg width="32px" height="32px" viewBox="0 0 32 32" version="1.1" xmlns="http://www.w3.org/2000/svg" xmlns:xlink="http://www.w3.org/1999/xlink">
    <!-- Generator: Sketch 44.1 (41455) - http://www.bohemiancoding.com/sketch -->
    <title>scan</title>
    <desc>Created with Sketch.</desc>
    <defs></defs>
    <g id="B_首页" stroke="none" stroke-width="1" fill="none" fill-rule="evenodd">
        <g id="B_1.1首页下拉菜单-确定" transform="translate(-529.000000, -220.000000)">
            <g id="下拉" transform="translate(497.000000, 120.000000)">
                <g id="Group-4" transform="translate(16.000000, 81.000000)">
                    <g id="scan" transform="translate(16.000000, 19.000000)">
                        <rect id="Rectangle-8" x="0" y="0" width="32" height="32"></rect>
                        <path d="M0.457142857,11.4285714 L0.457142857,4.91428571 L0.457142857,4.91428571 C0.457142857,2.70514671 2.24800386,0.914285714 4.45714286,0.914285714 L4.45714286,0.914285714 L11.4285714,0.914285714 L11.4285714,3.2 L4.74285714,3.2 C3.63828764,3.2 2.74285714,4.0954305 2.74285714,5.2 L2.74285714,11.4285714 L0.457142857,11.4285714 Z M0.457142857,20.5714286 L0.457142857,27.0857143 C0.457142857,29.2948533 2.24800386,31.0857143 4.45714286,31.0857143 L11.4285714,31.0857143 L11.4285714,28.8 L4.74285714,28.8 C3.63828764,28.8 2.74285714,27.9045695 2.74285714,26.8 L2.74285714,20.5714286 L0.457142857,20.5714286 Z M31.5428571,11.4285714 L31.5428571,4.91428571 C31.5428571,2.70514671 29.7519961,0.914285714 27.5428571,0.914285714 L20.5714286,0.914285714 L20.5714286,3.2 L27.2571429,3.2 C28.3617124,3.2 29.2571429,4.0954305 29.2571429,5.2 L29.2571429,11.4285714 L31.5428571,11.4285714 Z M31.5428571,20.5714286 L31.5428571,27.0857143 C31.5428571,29.2948533 29.7519961,31.0857143 27.5428571,31.0857143 L20.5714286,31.0857143 L20.5714286,28.8 L27.2571429,28.8 C28.3617124,28.8 29.2571429,27.9045695 29.2571429,26.8 L29.2571429,26.8 L29.2571429,20.5714286 L31.5428571,20.5714286 Z M0,16 C0,15.2425809 0.610668182,14.6285714 1.375,14.6285714 L30.625,14.6285714 C31.3843915,14.6285714 32,15.2373003 32,16 C32,16.7574191 31.3893318,17.3714286 30.625,17.3714286 L1.375,17.3714286 C0.615608469,17.3714286 0,16.7626997 0,16 Z" id="Combined-Shape" fill="#666666"></path>
                    </g>
                </g>
            </g>
        </g>
    </g>
</svg>