<?xml version="1.0" encoding="UTF-8"?>
<svg width="44px" height="44px" viewBox="0 0 44 44" version="1.1" xmlns="http://www.w3.org/2000/svg" xmlns:xlink="http://www.w3.org/1999/xlink">
    <!-- Generator: Sketch 44.1 (41455) - http://www.bohemiancoding.com/sketch -->
    <title>充值 (1)</title>
    <desc>Created with Sketch.</desc>
    <defs></defs>
    <g id="J_现金账户" stroke="none" stroke-width="1" fill="none" fill-rule="evenodd">
        <g id="J_1.1-现金账户-未绑定银行卡-Copy" transform="translate(-187.000000, -547.000000)" fill="#4D98F5">
            <g id="充值-(1)" transform="translate(187.000000, 547.000000)">
                <path d="M16.8719777,10.5403626 C16.2591643,9.92669456 15.2688579,9.93160391 14.6560446,10.545272 C14.0432312,11.15894 14.0138162,12.1506276 14.6266295,12.7642957 L20.4213928,18.5818689 L20.4213928,18.8715202 L15.7787187,18.8715202 C14.9109749,18.8715202 14.2099164,19.5735565 14.2099164,20.4425105 C14.2099164,21.3065551 14.9109749,22.0135007 15.7787187,22.0135007 L20.4213928,22.0135007 L20.4213928,25.1554812 L15.7787187,25.1554812 C14.9109749,25.1554812 14.2099164,25.8575174 14.2099164,26.7264714 C14.2099164,27.5954254 14.9109749,28.2974616 15.7787187,28.2974616 L20.4213928,28.2974616 L20.4213928,32.9662483 C20.4213928,33.8352022 21.1224513,34.5372385 21.990195,34.5372385 C22.8579387,34.5372385 23.5589972,33.8352022 23.5589972,32.9662483 L23.5589972,28.2974616 L28.314429,28.2974616 C29.1821727,28.2974616 29.8832312,27.5954254 29.8832312,26.7264714 C29.8832312,25.8575174 29.1821727,25.1554812 28.314429,25.1554812 L23.5589972,25.1554812 L23.5589972,22.0135007 L28.314429,22.0135007 C29.1821727,22.0135007 29.8832312,21.3114644 29.8832312,20.4425105 C29.8832312,19.5735565 29.1821727,18.8715202 28.314429,18.8715202 L23.5589972,18.8715202 L23.5589972,18.8076987 L29.368468,12.7299303 C29.9665738,12.1015342 29.9567688,11.1098466 29.3292479,10.5109066 C28.7066295,9.91196653 27.7212256,9.93651325 27.1182173,10.5649093 L22.1421727,15.8080893 L16.8719777,10.5403626" id="Fill-1"></path>
                <path d="M43.9093036,21.9300418 C43.9093036,21.0709066 43.2131476,20.3737796 42.3552089,20.3737796 C41.4972702,20.3737796 40.8011142,21.0709066 40.8011142,21.9300418 L40.8011142,22.01841 C40.8011142,32.406583 32.3638997,40.8555649 21.990195,40.8555649 C11.6262953,40.8555649 3.17437326,32.391855 3.17437326,22.0135007 C3.17437326,11.6253278 11.6115877,3.17634589 21.9852925,3.17634589 L22.5441783,3.17634589 C23.4070195,3.17634589 24.1129805,2.47430962 24.1129805,1.60535565 C24.1129805,0.741311018 23.411922,0.0343654114 22.5441783,0.0343654114 L22.0049025,0.0343654114 C9.89571031,0.0245467225 0.0416713092,9.8874198 0.0367688022,22.0085914 C0.0367688022,34.1346722 9.87610028,43.992636 21.9852925,43.992636 C34.0895822,43.992636 43.9338162,34.1346722 43.9338162,22.0135007 C43.9387187,21.6305718 43.9093036,21.9300418 43.9093036,21.9300418" id="Fill-2"></path>
                <path d="M30.81961,8.96937238 L35.0210585,8.96937238 L35.0210585,13.1472245 C35.0210585,14.0161785 35.7270195,14.7231241 36.5947632,14.7231241 C37.462507,14.7231241 38.168468,14.0161785 38.168468,13.1472245 L38.168468,8.96937238 L42.3699164,8.96937238 C43.2376602,8.96937238 43.9436212,8.26242678 43.9436212,7.3934728 C43.9436212,6.52451883 43.2376602,5.81757322 42.3699164,5.81757322 L38.168468,5.81757322 L38.168468,1.58080893 C38.168468,0.711854951 37.462507,0.00490934449 36.5947632,0.00490934449 C35.7270195,0.00490934449 35.0210585,0.711854951 35.0210585,1.58080893 L35.0210585,5.81757322 L30.81961,5.81757322 C29.9518663,5.81757322 29.2459053,6.52451883 29.2459053,7.3934728 C29.2459053,8.26242678 29.9518663,8.96937238 30.81961,8.96937238" id="Fill-3"></path>
            </g>
        </g>
    </g>
</svg>