<?xml version="1.0" encoding="UTF-8"?>
<svg width="30px" height="30px" viewBox="0 0 30 30" version="1.1" xmlns="http://www.w3.org/2000/svg" xmlns:xlink="http://www.w3.org/1999/xlink">
    <!-- Generator: Sketch 44.1 (41455) - http://www.bohemiancoding.com/sketch -->
    <title>对勾 </title>
    <desc>Created with Sketch.</desc>
    <defs></defs>
    <g id="首页" stroke="none" stroke-width="1" fill="none" fill-rule="evenodd">
        <path d="M14.9671133,30 C6.70059683,30 0,23.2984896 0,15.0328867 C0,6.76637028 6.70059683,0.065773447 14.9671133,0.065773447 C23.2336297,0.065773447 29.9342266,6.7672838 29.9342266,15.0328867 C29.9342266,23.2984896 23.2327162,30 14.9671133,30 Z M14.9671133,1.93666261 C7.73426309,1.93666261 1.87088916,7.80003654 1.87088916,15.0328867 C1.87088916,22.2657369 7.73426309,28.1291108 14.9671133,28.1291108 C22.1999635,28.1291108 28.0633374,22.2657369 28.0633374,15.0328867 C28.0633374,7.80003654 22.1990499,1.93666261 14.9671133,1.93666261 Z M13.3862119,20.2442631 C13.355335,20.2882217 13.3366261,20.3387211 13.2973447,20.3789525 C13.1130694,20.5632278 12.8698538,20.6483678 12.6285018,20.641827 C12.3871498,20.6474178 12.1439342,20.5632278 11.960609,20.3789525 C11.9212911,20.3396711 11.9025822,20.2891352 11.8717418,20.2451766 L7.28243605,15.656821 C6.92601705,15.2994884 6.92601705,14.7213764 7.28243605,14.3649939 C7.63976857,14.0085749 8.21788063,14.0085749 8.57429963,14.3649939 L12.6275518,18.4191961 L21.3580633,9.68777101 C21.7144823,9.33135201 22.2935079,9.33135201 22.6499269,9.68777101 C23.0072594,10.0441535 23.0072594,10.6232156 22.6499269,10.9795981 L13.3862119,20.2442631 L13.3862119,20.2442631 Z" id="对勾-" fill="#FA6E19"></path>
    </g>
</svg>