<?xml version="1.0" encoding="UTF-8"?>
<svg width="54px" height="54px" viewBox="0 0 54 54" version="1.1" xmlns="http://www.w3.org/2000/svg" xmlns:xlink="http://www.w3.org/1999/xlink">
    <!-- Generator: Sketch 44.1 (41455) - http://www.bohemiancoding.com/sketch -->
    <title>交易记录</title>
    <desc>Created with Sketch.</desc>
    <defs></defs>
    <g id="B_首页" stroke="none" stroke-width="1" fill="none" fill-rule="evenodd">
        <g id="B_1.1首页-切图" transform="translate(-253.000000, -646.000000)">
            <g id="交易记录" transform="translate(253.000000, 646.000000)">
                <circle id="Oval-3" fill="#559BF2" cx="27" cy="27" r="27"></circle>
                <path d="M18.75,11.3473335 L18.75,14.25 L35.25,14.25 L35.25,11.3470413 C39.0745399,11.94687 42,15.2551431 42,19.2482789 L42,37.0017211 C42,41.4190486 38.4110973,45 33.9999595,45 L20.0000405,45 C15.5817401,45 12,41.4201109 12,37.0017211 L12,19.2482789 C12,15.2566915 14.9304463,11.9480302 18.75,11.3473335 Z M15,19.2431933 L15,37.0068067 C15,39.752607 17.2394595,42 20.0019727,42 L33.9980273,42 C36.76369,42 39,39.7644712 39,37.0068067 L39,19.2431933 C39,16.497393 36.7605405,14.25 33.9980273,14.25 L20.0019727,14.25 C17.23631,14.25 15,16.4855288 15,19.2431933 Z M20.25,12.0073223 C20.25,10.346424 21.5937867,9 23.2460876,9 L30.7539124,9 C32.4086059,9 33.75,10.3408497 33.75,12.0073223 L33.75,13.4926777 C33.75,15.153576 32.4062133,16.5 30.7539124,16.5 L23.2460876,16.5 C21.5913941,16.5 20.25,15.1591503 20.25,13.4926777 L20.25,12.0073223 Z M22.5,12.2489566 L22.5,13.2510434 C22.5,13.8073397 22.946616,14.25 23.4975446,14.25 L30.5024554,14.25 C31.0536886,14.25 31.5,13.8027519 31.5,13.2510434 L31.5,12.2489566 C31.5,11.6926603 31.053384,11.25 30.5024554,11.25 L23.4975446,11.25 C22.9463114,11.25 22.5,11.6972481 22.5,12.2489566 Z M20.25,21.75 L33.75,21.75 L33.75,24.75 L20.25,24.75 L20.25,21.75 Z M20.25,27.75 L33.75,27.75 L33.75,30.75 L20.25,30.75 L20.25,27.75 Z M20.25,33.75 L33.75,33.75 L33.75,36.75 L20.25,36.75 L20.25,33.75 Z" id="Combined-Shape" fill="#FFFFFF"></path>
            </g>
        </g>
    </g>
</svg>