<?xml version="1.0" encoding="UTF-8"?>
<svg width="28px" height="28px" viewBox="0 0 28 28" version="1.1" xmlns="http://www.w3.org/2000/svg" xmlns:xlink="http://www.w3.org/1999/xlink">
    <!-- Generator: Sketch 44.1 (41455) - http://www.bohemiancoding.com/sketch -->
    <title>搜索</title>
    <desc>Created with Sketch.</desc>
    <defs></defs>
    <g id="F_卡包" stroke="none" stroke-width="1" fill="none" fill-rule="evenodd">
        <g id="F_切图" transform="translate(-50.000000, -115.000000)" fill="#BEBEBE">
            <path d="M71.0992536,133.359419 L77.6947512,139.954916 C78.081787,140.341952 78.0812477,140.970001 77.689966,141.361282 L76.3612823,142.689966 C75.9716037,143.079645 75.3435293,143.083364 74.9549164,142.694751 L68.3594188,136.099254 C66.4592237,137.452421 64.1346194,138.24827 61.6241348,138.24827 C55.2043024,138.24827 50,133.043967 50,126.624135 C50,120.204302 55.2043024,115 61.6241348,115 C68.0439672,115 73.2482696,120.204302 73.2482696,126.624135 C73.2482696,129.134619 72.4524213,131.459224 71.0992536,133.359419 Z M61.6241348,136.310914 C66.9739951,136.310914 71.3109138,131.973995 71.3109138,126.624135 C71.3109138,121.274274 66.9739951,116.937356 61.6241348,116.937356 C56.2742745,116.937356 51.9373558,121.274274 51.9373558,126.624135 C51.9373558,131.973995 56.2742745,136.310914 61.6241348,136.310914 Z" id="搜索"></path>
        </g>
    </g>
</svg>