<?xml version="1.0" encoding="UTF-8"?>
<svg width="48px" height="40px" viewBox="0 0 48 40" version="1.1" xmlns="http://www.w3.org/2000/svg" xmlns:xlink="http://www.w3.org/1999/xlink">
    <!-- Generator: Sketch 44.1 (41455) - http://www.bohemiancoding.com/sketch -->
    <title>商铺</title>
    <desc>Created with Sketch.</desc>
    <defs></defs>
    <g id="F_卡包" stroke="none" stroke-width="1" fill="none" fill-rule="evenodd">
        <g id="F_切图" transform="translate(-140.000000, -123.000000)" fill="#979797">
            <path d="M149.392408,162.634678 C148.81571,162.634678 148.351222,162.167325 148.351222,161.594026 L148.351222,146.990812 C148.351222,146.411306 148.818815,145.950159 149.392408,145.950159 C149.969106,145.950159 150.436699,146.411306 150.436699,146.990812 L150.436699,161.597129 C150.436699,162.167325 149.969106,162.634678 149.392408,162.634678 Z M178.610697,162.634678 C178.037165,162.634678 177.566406,162.167325 177.566406,161.594026 L177.566406,146.990812 C177.566406,146.411306 178.037165,145.950159 178.610697,145.950159 C179.190561,145.950159 179.654988,146.411306 179.654988,146.990812 L179.654988,161.597129 C179.651883,162.167325 179.187395,162.634678 178.610697,162.634678 Z M185.914523,162.634678 L142.088582,162.634678 C141.511884,162.634678 141.047396,162.167325 141.047396,161.594026 C141.047396,161.01452 141.514989,160.547166 142.088582,160.547166 L185.917628,160.547166 C186.497431,160.547166 186.958814,161.01452 186.958814,161.594026 C186.955709,162.167325 186.494326,162.634678 185.914523,162.634678 Z M188,137.60011 C188,139.905721 186.129628,141.775135 183.825941,141.775135 L181.737359,141.775135 C180.49355,141.775135 179.371327,141.226786 178.607592,140.354392 C177.843857,141.226786 176.724739,141.775135 175.477824,141.775135 L174.433533,141.775135 C173.186619,141.775135 172.067561,141.226786 171.303826,140.354392 C170.540091,141.226786 169.424078,141.775135 168.174059,141.775135 L167.129768,141.775135 C165.882853,141.775135 164.763735,141.226786 164,140.354392 C163.236265,141.226786 162.120252,141.775135 160.870232,141.775135 L159.829046,141.775135 C158.579027,141.775135 157.463075,141.226786 156.69934,140.354392 C155.932439,141.226786 154.816487,141.775135 153.566467,141.775135 L152.522176,141.775135 C151.272095,141.775135 150.156143,141.226786 149.392408,140.354392 C148.628673,141.226786 147.509555,141.775135 146.262641,141.775135 L144.174059,141.775135 C141.870372,141.775135 140,139.905721 140,137.60011 L140.208895,136.559458 L140,136.559458 L141.044291,129.259433 C141.044291,125.801017 143.846744,123 147.303826,123 L180.696174,123 C184.153256,123 186.955709,125.801017 186.955709,129.259433 L188,136.559458 L187.794271,136.559458 L188,137.60011 Z M184.870232,129.259433 C184.870232,126.953823 182.99986,125.087512 180.696174,125.087512 L147.306931,125.087512 C145.00014,125.087512 143.132873,126.953823 143.132873,129.259433 L142.088582,136.559458 L142.297477,136.559458 L142.088582,137.60011 C142.088582,138.752916 143.023768,139.687623 144.174059,139.687623 L146.262641,139.687623 C147.416036,139.687623 148.351222,138.752916 148.351222,137.60011 L148.351222,133.431293 C148.351222,132.851787 148.818815,132.384433 149.392408,132.384433 C149.969106,132.384433 150.436699,132.851787 150.436699,133.431293 L150.436699,137.60011 C150.436699,138.752916 151.371885,139.687623 152.522176,139.687623 L153.563301,139.687623 C154.716697,139.687623 155.648778,138.752916 155.648778,137.60011 L155.648778,133.431293 C155.648778,132.851787 156.116371,132.384433 156.693069,132.384433 C157.269767,132.384433 157.737359,132.851787 157.737359,133.431293 L157.737359,137.60011 C157.737359,138.752916 158.672545,139.687623 159.822836,139.687623 L160.864022,139.687623 C162.017418,139.687623 162.949499,138.752916 162.949499,137.60011 L162.949499,133.431293 C162.949499,132.851787 163.417092,132.384433 163.99379,132.384433 C164.570488,132.384433 165.034915,132.851787 165.034915,133.431293 L165.034915,137.60011 C165.034915,138.752916 165.970101,139.687623 167.120391,139.687623 L168.164682,139.687623 C169.318078,139.687623 170.253264,138.752916 170.253264,137.60011 L170.253264,133.431293 C170.253264,132.851787 170.720857,132.384433 171.297555,132.384433 C171.877358,132.384433 172.338741,132.851787 172.338741,133.431293 L172.338741,137.60011 C172.338741,138.752916 173.273927,139.687623 174.427323,139.687623 L175.471614,139.687623 C176.621905,139.687623 177.557091,138.752916 177.557091,137.60011 L177.557091,133.431293 C177.557091,132.851787 178.027789,132.384433 178.601382,132.384433 C179.181185,132.384433 179.645673,132.851787 179.645673,133.431293 L179.645673,137.60011 C179.645673,138.752916 180.580858,139.687623 181.731149,139.687623 L183.819731,139.687623 C184.969961,139.687623 185.908313,138.752916 185.908313,137.60011 L185.702523,136.559458 L185.908313,136.559458 L184.870232,129.259433 Z M172.348117,160.547166 L172.348117,152.203324 C172.348117,151.623818 171.886735,151.156465 171.306931,151.156465 L168.174059,151.156465 C167.600466,151.156465 167.129768,151.623818 167.129768,152.203324 L167.129768,160.547166 L165.044291,160.547166 L165.044291,151.156465 C165.044291,150.006763 165.979477,149.07522 167.129768,149.07522 L172.348117,149.07522 C173.501513,149.07522 174.436699,150.006763 174.436699,151.156465 L174.436699,160.547166 L172.348117,160.547166 Z M170.262641,158.465861 C169.685943,158.465861 169.21835,157.998508 169.21835,157.419001 C169.21835,156.839495 169.685943,156.378349 170.262641,156.378349 C170.842444,156.378349 171.306931,156.839495 171.306931,157.419001 C171.306931,157.998508 170.839338,158.465861 170.262641,158.465861 L170.262641,158.465861 Z" id="商铺"></path>
        </g>
    </g>
</svg>