<?xml version="1.0" encoding="UTF-8"?>
<svg width="101px" height="101px" viewBox="0 0 101 101" version="1.1" xmlns="http://www.w3.org/2000/svg" xmlns:xlink="http://www.w3.org/1999/xlink">
    <!-- Generator: Sketch 44.1 (41455) - http://www.bohemiancoding.com/sketch -->
    <title>注册账户</title>
    <desc>Created with Sketch.</desc>
    <defs>
        <circle id="path-1" cx="45.5" cy="45.5" r="45.5"></circle>
        <filter x="-8.8%" y="-7.7%" width="117.6%" height="117.6%" filterUnits="objectBoundingBox" id="filter-2">
            <feOffset dx="0" dy="1" in="SourceAlpha" result="shadowOffsetOuter1"></feOffset>
            <feGaussianBlur stdDeviation="2.5" in="shadowOffsetOuter1" result="shadowBlurOuter1"></feGaussianBlur>
            <feColorMatrix values="0 0 0 0 0   0 0 0 0 0   0 0 0 0 0  0 0 0 0.2 0" type="matrix" in="shadowBlurOuter1"></feColorMatrix>
        </filter>
    </defs>
    <g id="A_登录注册" stroke="none" stroke-width="1" fill="none" fill-rule="evenodd">
        <g id="A_1.1-手势验证-切图" transform="translate(-508.000000, -355.000000)">
            <g id="注册账户" transform="translate(513.000000, 359.000000)">
                <g id="Oval-2">
                    <use fill="black" fill-opacity="1" filter="url(#filter-2)" xlink:href="#path-1"></use>
                    <use fill="#FFFFFF" fill-rule="evenodd" xlink:href="#path-1"></use>
                </g>
                <path d="M57.019558,65.3433989 C55.6469102,65.3433989 54.347856,65.0837085 53.1221251,64.5637366 C51.8964482,64.0440333 50.8259614,63.3294011 49.9108809,62.4197861 C48.9959086,61.510171 48.2769515,60.4464723 47.7538475,59.2283137 C47.2309598,58.0101014 46.9694078,56.7190124 46.9694078,55.3544555 C46.9694078,53.9901136 47.2309598,52.6989708 47.7538475,51.4808122 C48.2768974,50.2626536 48.9959626,49.206694 49.9108809,48.3136321 C50.8259614,47.420194 51.8963942,46.7136233 53.1221251,46.1939201 C54.347802,45.6740556 55.6468562,45.4141503 57.019558,45.4141503 C58.3923139,45.4141503 59.6914222,45.6740019 60.9170991,46.1939201 C62.1427759,46.7136233 63.2049355,47.420194 64.10374,48.3136321 C65.0025985,49.2068015 65.7133905,50.2627611 66.2363863,51.4808122 C66.759274,52.6989708 67.0209342,53.9901136 67.0209342,55.3544555 C67.0209342,56.7190124 66.759274,58.0101014 66.2363863,59.2283137 C65.7134446,60.4465261 65.0025985,61.510171 64.10374,62.4197861 C63.2048273,63.3294548 62.1427219,64.0440871 60.9170991,64.5637366 C59.6914763,65.0837085 58.392368,65.3433989 57.019558,65.3433989 Z M61.9711476,53.7465463 L58.3432696,53.7465463 L58.3432696,50.384491 C58.3432696,49.9295491 58.1964068,49.5398523 57.9021405,49.2148631 C57.6079283,48.8900889 57.2321197,48.7276749 56.7744443,48.7276749 C56.3169851,48.7276749 55.9573985,48.8900889 55.6960087,49.2148631 C55.4346189,49.539906 55.3037618,49.9295491 55.3037618,50.384491 L55.3037618,53.7465463 L52.1171209,53.7465463 C51.6596618,53.7465463 51.267469,53.9087991 50.9405966,54.2338958 C50.6137782,54.5586162 50.4503691,54.9485818 50.4503691,55.4032012 C50.4503691,55.8578743 50.6137782,56.1991479 50.9405966,56.4266457 C51.267523,56.6539823 51.6596618,56.7674894 52.1171209,56.7674894 L55.3037618,56.7674894 L55.3037618,60.2271436 C55.3037618,60.6820855 55.4346189,61.0717823 55.6960087,61.3966102 C55.9573985,61.7215994 56.3169851,61.8837984 56.7744443,61.8837984 C57.2321197,61.8837984 57.6078743,61.7215457 57.9021405,61.3966102 C58.1963527,61.0717285 58.3432696,60.6820855 58.3432696,60.2271436 L58.3432696,56.7674894 L61.9711476,56.7674894 L61.9711476,56.8650882 C62.428769,56.8650882 62.8209077,56.7351893 63.1477261,56.4754452 C63.4747607,56.2153786 63.6379535,55.8580356 63.6379535,55.4033087 C63.6379535,54.9486893 63.4747066,54.55867 63.1477261,54.2339495 C62.8209618,53.9088528 62.428769,53.7465463 61.9711476,53.7465463 Z M49.8621069,41.6137599 C49.7313039,42.1333556 49.6004468,42.6044207 49.4697519,43.0267938 C49.339057,43.384083 49.1755397,43.7495413 48.9795244,44.1230613 C48.7834009,44.4965812 48.5711096,44.78094 48.3422719,44.9757615 C48.0481138,45.2032056 47.8438794,45.4468803 47.7294605,45.7066782 C47.6150417,45.966476 47.5168447,46.2342817 47.4351942,46.510579 C47.3535978,46.786715 47.26362,47.0708051 47.1657476,47.3632793 C47.0674966,47.6556997 46.9040874,47.9480663 46.6755201,48.2403255 C45.9235784,49.2147556 45.3598114,50.1569394 44.9839486,51.066447 C44.60814,51.9760082 44.3466962,52.8531082 44.199563,53.6978007 C44.052538,54.5423856 44.0116046,55.3790164 44.076871,56.207102 C44.1422995,57.0355638 44.2729403,57.8395721 44.4691719,58.619127 C44.5999209,59.203699 44.7959903,59.8128321 45.05738,60.4463648 C45.3189861,61.0796826 45.7030139,61.7294998 46.2094092,62.3954401 C46.7160209,63.0613804 47.3616006,63.7108751 48.1460944,64.3445153 C48.9303719,64.9778868 49.9108268,65.5869124 51.0876215,66.1717532 C50.3031278,66.3340059 49.3879391,66.4803505 48.3421097,66.6102494 C47.4595812,66.7079021 46.3729265,66.7970094 45.0820915,66.8781089 C43.7910401,66.9595846 42.3119763,67 40.6452245,67 C39.7953562,67 38.8067903,66.9676462 37.6792563,66.9026161 C36.55156,66.8376398 35.391528,66.7564328 34.1984572,66.6590489 C33.0056028,66.56145 31.828754,66.4477817 30.6685598,66.3178828 C29.5085818,66.1879301 28.4461519,66.0499158 27.4819189,65.903625 C26.5179021,65.7576029 25.70064,65.603143 25.0306733,65.4407291 C24.3608147,65.2783688 23.9440186,65.1321318 23.7805553,65.0022866 C23.4863972,64.74222 23.2577758,64.0194186 23.0943125,62.8337751 C22.9308493,61.6484003 22.9798937,60.0970834 23.2412835,58.1804695 C23.4047467,57.1084942 23.8378188,56.288309 24.5404458,55.7196451 C25.2431809,55.1512499 26.0683918,54.7047458 27.0163487,54.3797029 C27.9640354,54.0548749 28.9527636,53.754393 29.9822629,53.4782032 C31.0118163,53.2022284 31.918894,52.8205932 32.7033337,52.3333512 C33.3243101,51.9435469 33.7982616,51.5779274 34.1249718,51.2369225 C34.451736,50.8957564 34.6805737,50.5466362 34.8112146,50.1892395 C34.9419635,49.8321115 35.0073921,49.4583228 35.0073921,49.068626 C35.0073921,48.6788755 34.991062,48.2565024 34.9583477,47.8016143 C34.8928651,47.1194971 34.6562408,46.5834019 34.2475557,46.1937589 C33.8389787,45.8038471 33.4059066,45.413989 32.9483934,45.024346 C32.6867332,44.8292557 32.4581659,44.5371578 32.2618802,44.1471922 C32.0658108,43.7574954 31.9025098,43.383868 31.7716527,43.0265788 C31.6083517,42.6042057 31.4776027,42.1331944 31.379514,41.6135449 C31.1506763,41.5486223 30.9383309,41.4511309 30.7423156,41.3211783 C30.5787983,41.1912793 30.3990049,40.9961353 30.2028815,40.7362837 C30.0068662,40.4765396 29.8270729,40.086789 29.6635556,39.5668708 C29.5000923,39.0796289 29.4428829,38.6249557 29.4919813,38.2026901 C29.5409717,37.780317 29.6310035,37.4230278 29.7617525,37.1305536 C29.8925014,36.7732106 30.0722407,36.4645596 30.3008621,36.2048155 C30.3008621,35.1003789 30.3664529,33.9958886 30.4972559,32.8912371 C30.6279508,31.949322 30.8320771,30.9421618 31.1100673,29.8704015 C31.3877331,28.7982651 31.8372976,27.8399581 32.458274,26.9955881 C33.0464821,26.1833032 33.6757318,25.5173092 34.3455363,24.9977672 C35.0156112,24.4779027 35.7101812,24.0719753 36.4291383,23.7796086 C37.1481494,23.4871345 37.8672146,23.2842513 38.5863339,23.1704756 C39.3052369,23.056861 39.991696,23 40.6453867,23 C41.4950927,23 42.3120845,23.0975989 43.0965782,23.2924741 C43.8810179,23.4872419 44.6081941,23.7471473 45.278269,24.0721365 C45.948398,24.396857 46.5448252,24.762369 47.0676588,25.1684577 C47.5906546,25.5743852 48.0155617,25.9885355 48.3423801,26.4108548 C49.0940514,27.3528236 49.6414883,28.3924988 49.984853,29.5292892 C50.3278933,30.6663483 50.581118,31.738216 50.7446353,32.7452687 C50.9080986,33.9146816 50.9734731,35.0840408 50.9407588,36.2537761 C51.1368281,36.4160289 51.3002914,36.6108504 51.4309322,36.8382945 C51.561573,37.0331697 51.6597699,37.2932363 51.7251444,37.6180105 C51.790627,37.942731 51.790627,38.3489272 51.7251444,38.8361691 C51.6597699,39.4533638 51.5290209,39.9406057 51.3331138,40.2980024 C51.1367741,40.6553992 50.9245368,40.9313202 50.695645,41.1264642 C50.4339849,41.3536396 50.1561028,41.516161 49.8621069,41.6137599 L49.8621069,41.6137599 Z" id="注册" fill="#FDCD0B"></path>
            </g>
        </g>
    </g>
</svg>