<?xml version="1.0" encoding="UTF-8"?>
<svg width="54px" height="51px" viewBox="0 0 54 51" version="1.1" xmlns="http://www.w3.org/2000/svg" xmlns:xlink="http://www.w3.org/1999/xlink">
    <!-- Generator: Sketch 44.1 (41455) - http://www.bohemiancoding.com/sketch -->
    <title>账户</title>
    <desc>Created with Sketch.</desc>
    <defs>
        <path d="M297.999589,282.324952 C305.133786,282.324952 310.937122,275.746619 310.937122,267.66186 C310.937122,259.579506 305.132458,253 297.999589,253 C294.482402,253 291.195608,254.56532 288.745426,257.405069 C286.370143,260.157827 285.061865,263.802439 285.061865,267.664265 C285.061865,275.746619 290.86653,282.324952 297.999589,282.324952 Z M297.999589,255.667702 C303.54824,255.667702 308.06253,261.048742 308.06253,267.664265 C308.06253,274.277383 303.54824,279.661063 297.999589,279.661063 C292.453341,279.661063 287.937787,274.277618 287.936458,267.664265 C287.936458,261.048742 292.452013,255.667702 297.999589,255.667702 Z M308.06253,279.658424 C307.268049,279.658424 306.625202,280.254284 306.625202,280.991219 C306.625202,281.728095 307.267796,282.324952 308.06253,282.324952 C313.610106,282.324952 318.124395,286.510871 318.124395,291.655046 C318.124395,292.389517 317.479207,292.987782 316.687067,292.987782 L279.312933,292.987782 C278.520856,292.987782 277.874593,292.389517 277.874593,291.655046 C277.874593,286.510871 282.389894,282.324952 287.937534,282.324952 C288.733217,282.324952 289.374545,281.728095 289.374545,280.991219 C289.374545,280.254284 288.732963,279.658424 287.937534,279.658424 C280.803083,279.658424 275,285.039464 275,291.655046 C275,293.859751 276.935057,295.654311 279.312933,295.654311 L316.687067,295.654311 C319.06469,295.654311 321,293.859751 321,291.655046 C321,285.041635 315.196664,279.658424 308.06253,279.658424 L308.06253,279.658424 Z" id="path-1"></path>
        <filter x="-14.1%" y="-12.9%" width="128.3%" height="130.5%" filterUnits="objectBoundingBox" id="filter-2">
            <feOffset dx="0" dy="1" in="SourceAlpha" result="shadowOffsetOuter1"></feOffset>
            <feGaussianBlur stdDeviation="2" in="shadowOffsetOuter1" result="shadowBlurOuter1"></feGaussianBlur>
            <feColorMatrix values="0 0 0 0 0.919058248   0 0 0 0 0.202739205   0 0 0 0 0.139160591  0 0 0 1 0" type="matrix" in="shadowBlurOuter1"></feColorMatrix>
        </filter>
    </defs>
    <g id="A_登录注册" stroke="none" stroke-width="1" fill="none" fill-rule="evenodd">
        <g id="A_1.1-手势验证-切图" transform="translate(-271.000000, -250.000000)">
            <g id="我的">
                <use fill="black" fill-opacity="1" filter="url(#filter-2)" xlink:href="#path-1"></use>
                <use fill="#FBFFFB" fill-rule="evenodd" xlink:href="#path-1"></use>
            </g>
        </g>
    </g>
</svg>