<?xml version="1.0" encoding="UTF-8"?>
<svg width="48px" height="48px" viewBox="0 0 48 48" version="1.1" xmlns="http://www.w3.org/2000/svg" xmlns:xlink="http://www.w3.org/1999/xlink">
    <!-- Generator: Sketch 44.1 (41455) - http://www.bohemiancoding.com/sketch -->
    <title>home1</title>
    <desc>Created with Sketch.</desc>
    <defs></defs>
    <g id="B_首页" stroke="none" stroke-width="1" fill="none" fill-rule="evenodd">
        <g id="B_1.1首页-切图" transform="translate(-48.000000, -1168.000000)">
            <g id="home" transform="translate(48.000000, 1168.000000)">
                <path d="M24,48 C10.745166,48 0,37.254834 0,24 C0,10.745166 10.745166,0 24,0 C37.254834,0 48,10.745166 48,24 C48,37.254834 37.254834,48 24,48 Z M24,46 C36.1502645,46 46,36.1502645 46,24 C46,11.8497355 36.1502645,2 24,2 C11.8497355,2 2,11.8497355 2,24 C2,36.1502645 11.8497355,46 24,46 Z" id="Combined-Shape" fill="#A0A0A0"></path>
                <path d="M33,32.9999798 L33,22 L35.2757038,22 C36.0674031,22 36.0488952,22.0420568 35.5159192,21.4584444 L26.0031719,11.0419202 C24.9164288,9.85192892 23.1708026,9.85011874 22.0724718,11.0444716 L12.4858093,21.469252 C11.9537035,22.0478774 11.9325828,22 12.7218465,22 L15,22 L15,32.9999798 C15,34.6546833 16.3442196,36 17.99923,36 L30.00077,36 C31.6559528,36 33,34.6561401 33,32.9999798 Z M20.1266314,30.9981014 C20.1266314,29.343324 21.471577,28 23.1245445,28 L25.1287183,28 C26.7865584,28 28.1266314,29.3365511 28.1266314,30.9981014 L28.1266314,38 L20.1266314,38 L20.1266314,30.9981014 Z" id="-" stroke="#A0A0A0" stroke-width="2"></path>
                <path d="M30,12 L32.9906311,12 C33.5480902,12 34,12.4433532 34,13.0093689 L34,16 L30,12 Z" id="Rectangle-8" fill="#A0A0A0"></path>
            </g>
        </g>
    </g>
</svg>