<?xml version="1.0" encoding="UTF-8"?>
<svg width="108px" height="101px" viewBox="0 0 108 101" version="1.1" xmlns="http://www.w3.org/2000/svg" xmlns:xlink="http://www.w3.org/1999/xlink">
    <!-- Generator: Sketch 44.1 (41455) - http://www.bohemiancoding.com/sketch -->
    <title>logo</title>
    <desc>Created with Sketch.</desc>
    <defs>
        <filter x="-6.0%" y="-5.4%" width="115.0%" height="115.1%" filterUnits="objectBoundingBox" id="filter-1">
            <feOffset dx="1" dy="2" in="SourceAlpha" result="shadowOffsetOuter1"></feOffset>
            <feGaussianBlur stdDeviation="2" in="shadowOffsetOuter1" result="shadowBlurOuter1"></feGaussianBlur>
            <feColorMatrix values="0 0 0 0 0.904017857   0 0 0 0 0.162723214   0 0 0 0 0  0 0 0 0.797044837 0" type="matrix" in="shadowBlurOuter1" result="shadowMatrixOuter1"></feColorMatrix>
            <feMerge>
                <feMergeNode in="shadowMatrixOuter1"></feMergeNode>
                <feMergeNode in="SourceGraphic"></feMergeNode>
            </feMerge>
        </filter>
    </defs>
    <g id="A_登录注册" stroke="none" stroke-width="1" fill="none" fill-rule="evenodd">
        <g id="积分-(7)-copy" filter="url(#filter-1)" transform="translate(0.000000, 4.000000)" fill="#FFFFFF">
            <path d="M89.034057,63.0005579 C87.1676501,62.5144271 84.7137171,63.0850718 84.2346252,64.9629402 L81.0171876,75.9271098 C81.0007201,75.9915147 80.9859273,76.0562009 80.9729487,76.1214496 C80.1841845,80.1485872 77.8858553,84.0657582 74.5936162,83.8664966 L25.4062442,83.8664966 C23.0081333,83.496379 19.9552308,80.7113571 19.1666062,76.6840789 C19.153488,76.6188302 19.1386952,76.5538628 19.1223673,76.4891766 L16.1847372,65.2467157 C15.7062035,63.3696911 12.9731608,62.5204738 11.1053583,63.0033703 C9.24230076,63.4861262 7.42222607,65.3994314 7.90187618,67.2774404 L10.5366722,78.1462681 C11.9680866,85.2756713 17.1067762,92.4346051 25.4062442,92.4346051 L74.5936162,92.4346051 C82.8930842,92.4346051 88.0317739,85.27539 89.4633278,78.1462681 L92.2380974,67.2742061 C92.7177475,65.396619 90.8975332,63.4833138 89.0339174,63.0005579 L89.034057,63.0005579 Z M99.9137551,31.0450147 C99.5616581,27.4026194 97.3095216,24.6101444 93.8498166,23.5498533 C91.3209427,22.7779782 88.6465131,23.206454 86.3156675,24.7587821 C81.9623928,27.666989 77.6064664,30.5709774 73.247749,33.470747 L62.2557092,21.2776804 C63.1737012,19.6270574 63.7560637,17.8045941 63.969164,15.8866484 C64.433463,11.7063733 63.072803,7.56434749 60.2355128,4.52254944 C57.5309393,1.62474849 53.8772531,0.0188433701 49.9284083,0 C45.9917049,0.00295306546 42.3341111,1.57117145 39.6296772,4.41497348 C36.7538699,7.43722505 35.3534367,11.5771416 35.787871,15.7745726 C35.9909234,17.7292207 36.5777516,19.5881051 37.5133275,21.2706493 L26.6039042,33.3724521 C22.2962638,30.5043225 17.9891817,27.6356303 13.6802854,24.7556884 C11.3526496,23.2056102 8.68003416,22.7784001 6.1466945,23.550697 C2.6903389,24.6100038 0.438341865,27.4026194 0.0868031327,31.0445928 C0.0293065239,31.3794142 0.000279109752,31.7184542 0,32.0581974 C0,32.3530821 0.0368424872,32.647123 0.109829687,32.9324454 L5.71393483,54.8869402 C6.11822531,56.4713302 7.5334513,57.5237464 9.08516197,57.5230433 C9.37878543,57.5229027 9.67115289,57.4854972 9.95542617,57.4116706 C11.8187629,56.9287741 14.6158612,55.0154689 14.1362111,53.1374599 L9.39399691,35.8249027 C9.39455513,35.8212465 9.07818422,33.8734889 9.07818422,33.8706765 C9.15298564,32.8771809 9.54304151,32.5119851 10.2084392,32.5423595 C11.2322137,32.5893273 12.5595202,33.9793774 13.153047,34.3756507 C17.5908921,37.3419346 18.5721024,38.6428303 23.013855,41.5994113 L25.2539899,42.7166544 C26.6891722,43.6719007 28.598562,43.4290463 29.7530995,42.1482596 L45.9469077,23.9043618 C47.1512663,22.5680294 47.154197,20.5295705 45.9526295,19.1904256 C44.9098755,18.028324 43.2971793,16.5942592 43.136133,15.0454467 C42.9149385,12.9064429 43.7616179,10.8027353 45.217594,9.27290679 C46.6176085,7.80073335 47.8829525,7.45705277 49.9145924,7.45536531 C51.914972,7.46506824 53.2191123,7.85093546 54.6008451,9.33126499 C56.0358879,10.8698121 56.7230561,12.9746447 56.4866502,15.1060548 C56.3163932,16.6365864 54.8460431,18.0489955 53.8187796,19.1898631 C52.6128859,20.5284455 52.4737497,22.8522267 53.679783,24.1903873 L70.0114714,42.431332 C70.7319932,43.2306284 71.7277173,43.6150894 72.7294422,43.5785276 C73.4448005,43.5970897 74.1485757,43.3945938 74.7462892,42.9981799 L76.8451946,41.6001144 C81.2875054,38.6429709 84.2591869,35.7545916 89.0058669,32.2847397 C89.5862756,31.8604826 90.6573593,31.1901368 91.1564075,31.4478972 C92.3681625,32.0736658 92.0333704,32.3660193 92.1081718,33.3595149 C92.1081718,33.362468 91.9834097,34.0585477 91.9419619,34.2607624 L86.4225666,53.1354912 C85.9427769,55.0135002 88.1819349,56.9268054 90.0448529,57.4097019 C91.9097247,57.8895047 93.8073919,56.76059 94.2864838,54.8849715 L99.8898912,32.9332891 C99.963018,32.6475449 100,32.3533633 100,32.0586193 C100,31.723376 99.9711121,31.3833516 99.9131969,31.0451553 L99.9137551,31.0450147 L99.9137551,31.0450147 Z" id="Fill-1"></path>
            <path d="M37.8645816,41.6558906 C35.4988536,41.6558906 33.5804854,43.5890608 33.5804854,45.9728815 L33.5804854,50.1845289 C33.5804854,52.5683495 35.4985941,54.5015198 37.8645816,54.5015198 C40.2304393,54.5015198 42.1488075,52.5683495 42.1488075,50.1845289 L42.1488075,45.9728815 C42.1488075,43.5890608 40.2304393,41.6558906 37.8645816,41.6558906 Z M63.1346402,42.0577903 C60.9166485,42.0577903 59.1183891,43.8699331 59.1183891,46.1047568 L59.1183891,50.0529149 C59.1183891,52.2877386 60.9166485,54.0997508 63.1346402,54.0997508 C65.3523724,54.0997508 67.1508912,52.2877386 67.1508912,50.0529149 L67.1508912,46.1047568 C67.1508912,43.8699331 65.3523724,42.0577903 63.1346402,42.0577903 Z M59.2021799,57.9306717 C57.5534728,56.8684802 55.3659623,57.3519362 54.3124812,59.0103769 C54.2986025,59.0328571 52.796205,61.2312158 50.4630335,61.2312158 C48.1956234,61.2312158 46.7851883,59.1600274 46.6919289,59.0184802 C45.6520669,57.3727173 43.4888117,56.8722705 41.8378996,57.9044012 C40.1776485,58.9441125 39.668159,61.1435167 40.6994603,62.816465 C41.9702008,64.8764134 45.4568577,68.3642492 50.4630335,68.3642492 C55.4445649,68.3642492 58.9737657,64.9028146 60.2739498,62.8575046 C61.3280795,61.1986717 60.8482929,58.9924711 59.2024393,57.9304103 L59.2021799,57.9306717 L59.2021799,57.9306717 Z" id="Fill-2"></path>
        </g>
    </g>
</svg>