<?xml version="1.0" encoding="UTF-8"?>
<svg width="54px" height="54px" viewBox="0 0 54 54" version="1.1" xmlns="http://www.w3.org/2000/svg" xmlns:xlink="http://www.w3.org/1999/xlink">
    <!-- Generator: Sketch 44.1 (41455) - http://www.bohemiancoding.com/sketch -->
    <title>密码</title>
    <desc>Created with Sketch.</desc>
    <defs>
        <path d="M379,289.198462 C378.023398,289.198462 377.230769,288.462987 377.230769,287.553077 L377.230769,282.616923 C377.230769,281.707013 378.023398,280.971538 379,280.971538 C379.976602,280.971538 380.769231,281.707013 380.769231,282.616923 L380.769231,287.553077 C380.769231,288.462987 379.976602,289.198462 379,289.198462 Z M396.692308,299.070769 L361.307692,299.070769 C358.381412,299.070769 356,296.856056 356,294.134615 L356,276.035385 C356,273.313944 358.381412,271.099231 361.307692,271.099231 L396.692308,271.099231 C399.618588,271.099231 402,273.313944 402,276.035385 L402,294.134615 C402,296.856056 399.618588,299.070769 396.692308,299.070769 Z M361.307692,274.39 C360.332819,274.39 359.538462,275.128752 359.538462,276.035385 L359.538462,294.134615 C359.538462,295.042855 360.332819,295.78 361.307692,295.78 L396.692308,295.78 C397.668909,295.78 398.461538,295.042855 398.461538,294.134615 L398.461538,276.035385 C398.461538,275.128752 397.668909,274.39 396.692308,274.39 L361.307692,274.39 Z M391.384615,274.39 C390.406217,274.39 389.615385,273.652855 389.615385,272.744615 L389.615385,266.061076 C389.615385,260.468375 383.962692,256.290769 378.908014,256.290769 C373.734742,256.290769 368.384615,259.936967 368.384615,266.038002 L368.384615,272.744615 C368.384615,273.652855 367.591986,274.39 366.615385,274.39 C365.638783,274.39 364.846154,273.652855 364.846154,272.744615 L364.846154,266.038002 C364.846154,257.876894 371.995643,253 378.908014,253 C385.646986,253 393.153846,258.363954 393.153846,266.061076 L393.153846,272.744615 C393.153846,273.652855 392.363014,274.39 391.384615,274.39 L391.384615,274.39 Z" id="path-1"></path>
        <filter x="-14.1%" y="-11.9%" width="128.3%" height="128.2%" filterUnits="objectBoundingBox" id="filter-2">
            <feOffset dx="0" dy="1" in="SourceAlpha" result="shadowOffsetOuter1"></feOffset>
            <feGaussianBlur stdDeviation="2" in="shadowOffsetOuter1" result="shadowBlurOuter1"></feGaussianBlur>
            <feColorMatrix values="0 0 0 0 0.919058248   0 0 0 0 0.202739205   0 0 0 0 0.139160591  0 0 0 1 0" type="matrix" in="shadowBlurOuter1"></feColorMatrix>
        </filter>
    </defs>
    <g id="A_登录注册" stroke="none" stroke-width="1" fill="none" fill-rule="evenodd">
        <g id="A_1.1-手势验证-切图" transform="translate(-352.000000, -250.000000)">
            <g id="锁-(1)">
                <use fill="black" fill-opacity="1" filter="url(#filter-2)" xlink:href="#path-1"></use>
                <use fill="#FBFFFB" fill-rule="evenodd" xlink:href="#path-1"></use>
            </g>
        </g>
    </g>
</svg>