<?xml version="1.0" encoding="UTF-8"?>
<svg width="80px" height="80px" viewBox="0 0 80 80" version="1.1" xmlns="http://www.w3.org/2000/svg" xmlns:xlink="http://www.w3.org/1999/xlink">
    <!-- Generator: Sketch 44.1 (41455) - http://www.bohemiancoding.com/sketch -->
    <title>扫描</title>
    <desc>Created with Sketch.</desc>
    <defs>
        <linearGradient x1="57.2678447%" y1="0%" x2="57.2678443%" y2="98.569037%" id="linearGradient-1">
            <stop stop-color="#FC4D59" offset="0%"></stop>
            <stop stop-color="#FD9F56" offset="100%"></stop>
        </linearGradient>
    </defs>
    <g id="B_首页" stroke="none" stroke-width="1" fill="none" fill-rule="evenodd">
        <g id="B_1.1首页-切图" transform="translate(-335.000000, -1240.000000)">
            <g id="扫描" transform="translate(335.000000, 1240.000000)">
                <rect id="Rectangle-2" fill="url(#linearGradient-1)" x="0" y="0" width="80" height="80" rx="8"></rect>
                <g id="scan" transform="translate(16.000000, 16.000000)">
                    <rect id="Rectangle-8" x="0" y="0" width="48" height="48"></rect>
                    <path d="M0.685714286,17.1428571 L0.685714286,11.3733497 C0.685714286,5.84944121 5.15665774,1.37142857 10.6887127,1.37142857 L17.1428571,1.37142857 L17.1428571,4.8 L10.111532,4.8 C6.8010942,4.8 4.11428571,7.4862915 4.11428571,10.8 L4.11428571,17.1428571 L0.685714286,17.1428571 Z M0.685714286,30.8571429 L0.685714286,36.6266503 C0.685714286,42.1445052 5.16420923,46.6285714 10.6887127,46.6285714 L17.1428571,46.6285714 L17.1428571,43.2 L10.111532,43.2 C6.79934436,43.2 4.11428571,40.5150489 4.11428571,37.2 L4.11428571,30.8571429 L0.685714286,30.8571429 Z M47.3142857,17.1428571 L47.3142857,11.3733497 C47.3142857,5.85549484 42.8357908,1.37142857 37.3112873,1.37142857 L30.8571429,1.37142857 L30.8571429,4.8 L37.888468,4.8 C41.2006556,4.8 43.8857143,7.48495114 43.8857143,10.8 L43.8857143,17.1428571 L47.3142857,17.1428571 Z M47.3142857,30.8571429 L47.3142857,36.6266503 C47.3142857,42.1505588 42.8433423,46.6285714 37.3112873,46.6285714 L30.8571429,46.6285714 L30.8571429,43.2 L37.888468,43.2 C41.1989058,43.2 43.8857143,40.5137085 43.8857143,37.2 L43.8857143,30.8571429 L47.3142857,30.8571429 Z M0,24 C0,22.8638714 0.916002274,21.9428571 2.0625,21.9428571 L45.9375,21.9428571 C47.0765873,21.9428571 48,22.8559505 48,24 C48,25.1361286 47.0839977,26.0571429 45.9375,26.0571429 L2.0625,26.0571429 C0.923412704,26.0571429 0,25.1440495 0,24 Z" id="Combined-Shape" fill="#FFFFFF" fill-rule="evenodd"></path>
                </g>
            </g>
        </g>
    </g>
</svg>