<?xml version="1.0" encoding="UTF-8"?>
<svg width="64px" height="70px" viewBox="0 0 64 70" version="1.1" xmlns="http://www.w3.org/2000/svg" xmlns:xlink="http://www.w3.org/1999/xlink">
    <!-- Generator: Sketch 44.1 (41455) - http://www.bohemiancoding.com/sketch -->
    <title>指纹</title>
    <desc>Created with Sketch.</desc>
    <defs>
        <path d="M50.0675543,9.67484027 C49.8187036,9.67484027 49.5854346,9.61266523 49.3521655,9.50397269 C43.396059,6.42780997 38.2174857,5.10720472 32.028019,5.10720472 C25.8542251,5.10720472 20.037989,6.58311104 14.7039637,9.48840617 C13.9557714,9.84288586 13.0606925,9.5522198 12.6642262,8.82596429 C12.2676688,8.09970878 12.5075897,7.19056942 13.2110417,6.75406965 C19.0116051,3.60016537 25.3410332,2 32.028019,2 C38.6528606,2 44.4379334,3.46033979 50.7828521,6.73850313 C51.5448947,7.12693786 51.8403992,8.07458387 51.4515871,8.8358868 C51.1716642,9.36414711 50.6274001,9.67484027 50.0675543,9.67484027 Z M5.55981628,25.9878244 C5.24873011,25.9878244 4.93773506,25.8946073 4.65781218,25.7081732 C4.3212122,25.4715803 4.09259029,25.1110015 4.02260957,24.7058168 C3.95253773,24.3006321 4.04684769,23.8842505 4.28458167,23.5486145 C7.36373336,19.1985461 11.2982353,15.7805572 15.9636167,13.3724803 C25.7453359,8.32319302 38.2485579,8.3076265 48.0458587,13.3413473 C52.6956584,15.7339487 56.6145787,19.1208045 59.7093121,23.439922 C60.2069224,24.1390499 60.0514704,25.1022624 59.3516632,25.5993897 C58.651856,26.096608 57.6721259,25.9412159 57.1744245,25.242088 C54.3751957,21.3269718 50.8295059,18.2508091 46.6306627,16.1068169 C37.7042938,11.5236148 26.3051816,11.5391813 17.3943033,16.1378589 C13.1798784,18.3129841 9.61869805,21.4046223 6.83495977,25.3508715 C6.52396472,25.7703483 6.04184494,25.9878244 5.55981628,25.9878244 Z M25.0144565,63.4766458 C24.6100627,63.4766458 24.2213417,63.3212537 23.9102555,63.0105606 C21.219916,60.2916995 19.7580661,58.5671841 17.6586445,54.8229355 C15.5125691,51.0010363 14.377387,46.3247082 14.377387,41.3220294 C14.377387,32.0935413 22.277372,24.5740021 31.9969469,24.5740021 C41.7165217,24.5740021 49.6165067,32.0779748 49.6165067,41.3220294 C49.6165067,42.1765494 48.9166995,42.8756773 48.0614404,42.8756773 C47.2060901,42.8756773 46.5062829,42.1765494 46.5062829,41.3220294 C46.5062829,33.8024902 40.0058211,27.6812978 31.9969469,27.6812978 C24.0035631,27.6812978 17.4876109,33.8024902 17.4876109,41.3220294 C17.4876109,45.7964479 18.4829226,49.9290402 20.3645657,53.3004206 C22.3706797,56.8737106 23.7081497,58.411792 26.1029847,60.8199598 C26.7094843,61.4258707 26.7094843,62.4201252 26.0874942,63.0105606 C25.8075713,63.3368202 25.4031775,63.4766458 25.0144565,63.4766458 Z M47.2993977,57.7282306 C43.5981648,57.7282306 40.3479795,56.7960601 37.6576399,54.9783276 C33.0389124,51.8399898 30.2707558,46.744185 30.2707558,41.337596 C30.2707558,40.483076 30.970563,39.7839481 31.8259133,39.7839481 C32.6811724,39.7839481 33.3809796,40.483076 33.3809796,41.337596 C33.3809796,45.7032309 35.6359443,49.8358232 39.4149032,52.3992921 C41.6076324,53.8907649 44.1891738,54.6210259 47.2993977,54.6210259 C48.0458587,54.6210259 49.3055117,54.5432843 50.549583,54.3258082 C51.3893516,54.1704161 52.1980481,54.7452849 52.3535912,55.5842384 C52.5090432,56.4231919 51.9337069,57.2311033 51.0939382,57.3864044 C49.2744395,57.7126641 47.7348637,57.7282306 47.2993977,57.7282306 Z M41.032205,64.1446407 C40.8922436,64.1446407 40.7522822,64.1291652 40.6279024,64.0825567 C35.6670165,62.7309094 32.4324128,60.8976104 29.0733383,57.557363 C24.7462882,53.2690145 22.3208366,47.4265629 22.3396075,41.337596 C22.3396075,36.2883086 26.6317583,32.1867583 31.9192209,32.1867583 C37.2065923,32.1867583 41.4987432,36.2883086 41.4987432,41.337596 C41.4987432,44.6622768 44.4068613,47.3811378 47.9681327,47.3811378 C51.5293131,47.3811378 54.4374312,44.6778433 54.4374312,41.337596 C54.4374312,29.6232894 44.3291353,20.0995836 31.9036392,20.0995836 C23.0549963,20.0995836 14.9838866,25.0090453 11.3448892,32.6218016 C10.13189,35.138662 9.52539042,38.0749991 9.52539042,41.337596 C9.52539042,43.7612393 9.74307785,47.5831384 11.5936487,52.5391177 C11.8891533,53.3470291 11.4848506,54.2325911 10.6761541,54.5432843 C9.86745764,54.838502 8.98103519,54.4345918 8.67004014,53.6266803 C7.14604594,49.5406965 6.39958492,45.5323633 6.39958492,41.337596 C6.39958492,37.6089139 7.11488265,34.221967 8.5300787,31.2856298 C12.6822681,22.616444 21.8574877,17.0079454 31.8880576,17.0079454 C46.0241631,17.0079454 57.5321645,27.929816 57.5321645,41.3530714 C57.5321645,46.4023588 53.224432,50.5039091 47.9525511,50.5039091 C42.6806702,50.5039091 38.3729377,46.4023588 38.3729377,41.3530714 C38.3729377,38.0283906 35.4649107,35.3095296 31.9036392,35.3095296 C28.3423678,35.3095296 25.4343408,38.0128241 25.4343408,41.3530714 C25.4343408,46.6509679 27.5025991,51.6380802 31.2504859,55.3667623 C34.1896761,58.2875329 37.0511404,59.9032648 41.4365988,61.099611 C42.2607858,61.3326536 42.7583961,62.1870826 42.5251271,63.0105606 C42.3385118,63.6941219 41.7165217,64.1446407 41.032205,64.1446407 L41.032205,64.1446407 Z" id="path-1"></path>
        <filter x="-12.5%" y="-8.0%" width="125.0%" height="122.5%" filterUnits="objectBoundingBox" id="filter-2">
            <feOffset dx="0" dy="2" in="SourceAlpha" result="shadowOffsetOuter1"></feOffset>
            <feGaussianBlur stdDeviation="2" in="shadowOffsetOuter1" result="shadowBlurOuter1"></feGaussianBlur>
            <feColorMatrix values="0 0 0 0 0   0 0 0 0 0   0 0 0 0 0  0 0 0 0.1 0" type="matrix" in="shadowBlurOuter1"></feColorMatrix>
        </filter>
    </defs>
    <g id="A_登录注册" stroke="none" stroke-width="1" fill="none" fill-rule="evenodd">
        <g id="指纹">
            <use fill="black" fill-opacity="1" filter="url(#filter-2)" xlink:href="#path-1"></use>
            <use fill="#F2F2F2" fill-rule="evenodd" xlink:href="#path-1"></use>
        </g>
    </g>
</svg>