<?xml version="1.0" encoding="UTF-8"?>
<svg width="50px" height="50px" viewBox="0 0 50 50" version="1.1" xmlns="http://www.w3.org/2000/svg" xmlns:xlink="http://www.w3.org/1999/xlink">
    <!-- Generator: Sketch 44.1 (41455) - http://www.bohemiancoding.com/sketch -->
    <title>Circle Copy 2</title>
    <desc>Created with Sketch.</desc>
    <defs></defs>
    <g id="J_现金账户" stroke="none" stroke-width="1" fill="none" fill-rule="evenodd">
        <g id="J_1.1-现金账户-未绑定银行卡-Copy" transform="translate(-229.000000, -992.000000)">
            <circle id="Circle-Copy-2" fill="#C9C9C9" cx="253.893747" cy="1016.89375" r="24.8937466"></circle>
            <path d="M256.842327,1012.61626 L263.526753,1012.61626 C264.338353,1012.61626 264.999547,1011.95393 264.999547,1011.14142 C264.999547,1010.33118 264.338353,1009.67089 263.526753,1009.67089 L262.5575,1009.67089 C261.80185,1009.67089 261.11959,1009.2156 260.830558,1008.51681 C260.541299,1007.81824 260.700539,1007.01434 261.235791,1006.4766 L263.687125,1004.02617 C264.150346,1003.56431 264.150346,1002.81001 263.688258,1002.34679 C263.462423,1002.12345 263.165917,1002 262.847891,1002 C262.531904,1002 262.233132,1002.12345 262.009563,1002.34679 L255.304976,1009.05432 C254.954786,1009.40451 254.477521,1009.59977 253.981908,1009.59977 C253.485843,1009.59977 253.009937,1009.40429 252.65884,1009.05432 L245.95516,1002.34679 C245.731364,1002.12345 245.432819,1002 245.115926,1002 C244.798806,1002 244.50162,1002.12345 244.277598,1002.34679 C243.814377,1002.80888 243.814377,1003.56408 244.277598,1004.02617 L246.729385,1006.4766 C247.264637,1007.01207 247.423197,1007.81824 247.135298,1008.51681 C246.845133,1009.2156 246.162873,1009.67089 245.406996,1009.67089 L243.472114,1009.67089 C242.660741,1009.67089 242,1010.33118 242,1011.14142 C242,1011.95393 242.660741,1012.61626 243.472114,1012.61626 L250.15722,1012.61626 C251.191257,1012.61626 252.028679,1013.45232 252.028679,1014.48613 L252.028679,1017.82834 C252.028679,1018.86215 251.191257,1019.69844 250.15722,1019.69844 L243.472114,1019.69844 C242.660741,1019.69844 242,1020.36054 242,1021.17101 C242,1021.98351 242.660741,1022.64335 243.472114,1022.64335 L250.15722,1022.64335 C251.191257,1022.64335 252.028679,1023.48145 252.028679,1024.51345 L252.028679,1031.20059 C252.028679,1032.01083 252.68942,1032.67089 253.500113,1032.67089 C254.312619,1032.67089 254.972454,1032.01083 254.972454,1031.20059 L254.972454,1024.51345 C254.972454,1023.48145 255.809876,1022.64335 256.84278,1022.64335 L263.527433,1022.64335 C264.340165,1022.64335 265,1021.98329 265,1021.17101 C265,1020.36054 264.339938,1019.69844 263.527433,1019.69844 L256.84278,1019.69844 C255.809876,1019.69844 254.972454,1018.86215 254.972454,1017.82834 L254.972454,1014.48613 C254.970868,1013.45232 255.808064,1012.61626 256.842327,1012.61626" id="Fill-3" fill="#FFFFFF"></path>
        </g>
    </g>
</svg>