<?xml version="1.0" encoding="UTF-8"?>
<svg width="54px" height="54px" viewBox="0 0 54 54" version="1.1" xmlns="http://www.w3.org/2000/svg" xmlns:xlink="http://www.w3.org/1999/xlink">
    <!-- Generator: Sketch 44.1 (41455) - http://www.bohemiancoding.com/sketch -->
    <title>零钱账户</title>
    <desc>Created with Sketch.</desc>
    <defs></defs>
    <g id="B_首页" stroke="none" stroke-width="1" fill="none" fill-rule="evenodd">
        <g id="B_1.1首页-切图" transform="translate(-635.000000, -482.000000)">
            <g id="零钱账户" transform="translate(635.000000, 482.000000)">
                <circle id="Oval-3-Copy-3" fill="#54AEF5" cx="27" cy="27" r="27"></circle>
                <g id="合并形状" transform="translate(9.000000, 9.000000)" fill="#FFFFFF">
                    <path d="M20.9249525,13.5 L24.3725621,13.5 C24.9952288,13.5 25.5,13.9993479 25.5,14.625 C25.5,15.2463203 25.0009232,15.75 24.3725621,15.75 L19.4997456,15.75 L19.4997456,18.75 L24.3725621,18.75 C24.9952288,18.75 25.5,19.2493479 25.5,19.875 C25.5,20.4963203 25.0009232,21 24.3725621,21 L19.4997456,21 L19.4997456,26.2519336 C19.4997456,27.0792928 18.8340048,27.75 17.9998728,27.75 C17.1715159,27.75 16.5,27.081806 16.5,26.2519336 L16.5,21 L11.6274379,21 C11.0047712,21 10.5,20.5006521 10.5,19.875 C10.5,19.2536797 10.9990768,18.75 11.6274379,18.75 L16.5,18.75 L16.5,15.75 L11.6274379,15.75 C11.0047712,15.75 10.5,15.2506521 10.5,14.625 C10.5,14.0036797 10.9990768,13.5 11.6274379,13.5 L14.9864755,13.5 L12.6609026,11.1744271 C12.6609026,11.1744271 12.184837,10.3286875 12.7948969,9.71862762 C13.4049568,9.10856771 14.2476621,9.58766761 14.2476621,9.58766761 L17.9596353,13.2996409 L21.670785,9.58849117 C21.670785,9.58849117 22.4943889,8.97236112 23.1927741,9.67924956 C23.8911592,10.386138 23.2536232,11.1713293 23.2536232,11.1713293 L20.9249525,13.5 Z M18,36 C8.0588745,36 0,27.9411255 0,18 C0,8.0588745 8.0588745,0 18,0 C27.9411255,0 36,8.0588745 36,18 C36,27.9411255 27.9411255,36 18,36 Z M18,33 C26.2842712,33 33,26.2842712 33,18 C33,9.71572875 26.2842712,3 18,3 C9.71572875,3 3,9.71572875 3,18 C3,26.2842712 9.71572875,33 18,33 Z" id="Combined-Shape"></path>
                </g>
            </g>
        </g>
    </g>
</svg>