<?xml version="1.0" encoding="UTF-8"?>
<svg width="40px" height="40px" viewBox="0 0 40 40" version="1.1" xmlns="http://www.w3.org/2000/svg" xmlns:xlink="http://www.w3.org/1999/xlink">
    <!-- Generator: Sketch 44.1 (41455) - http://www.bohemiancoding.com/sketch -->
    <title>Combined Shape</title>
    <desc>Created with Sketch.</desc>
    <defs></defs>
    <g id="D_扫一扫" stroke="none" stroke-width="1" fill="none" fill-rule="evenodd">
        <g id="D_切图" transform="translate(-531.000000, -429.000000)" fill="#54AEF5">
            <path d="M554.249947,444 L558.080625,444 C558.772476,444 559.333333,444.554831 559.333333,445.25 C559.333333,445.940356 558.778804,446.5 558.080625,446.5 L552.666384,446.5 L552.666384,449.833333 L558.080625,449.833333 C558.772476,449.833333 559.333333,450.388164 559.333333,451.083333 C559.333333,451.773689 558.778804,452.333333 558.080625,452.333333 L552.666384,452.333333 L552.666384,458.168815 C552.666384,459.088103 551.926672,459.833333 550.999859,459.833333 C550.079462,459.833333 549.333333,459.090896 549.333333,458.168815 L549.333333,452.333333 L543.919375,452.333333 C543.227524,452.333333 542.666667,451.778502 542.666667,451.083333 C542.666667,450.392977 543.221196,449.833333 543.919375,449.833333 L549.333333,449.833333 L549.333333,446.5 L543.919375,446.5 C543.227524,446.5 542.666667,445.945169 542.666667,445.25 C542.666667,444.559644 543.221196,444 543.919375,444 L547.651639,444 L545.06767,441.41603 C545.06767,441.41603 544.538708,440.476319 545.216552,439.798475 C545.894396,439.120631 546.830736,439.652964 546.830736,439.652964 L550.95515,443.777379 L555.07865,439.653879 C555.07865,439.653879 555.993765,438.96929 556.769749,439.754722 C557.545732,440.540153 556.837359,441.412588 556.837359,441.412588 L554.249947,444 Z M551,469 C539.954305,469 531,460.045695 531,449 C531,437.954305 539.954305,429 551,429 C562.045695,429 571,437.954305 571,449 C571,460.045695 562.045695,469 551,469 Z M551,465.666667 C560.204746,465.666667 567.666667,458.204746 567.666667,449 C567.666667,439.795254 560.204746,432.333333 551,432.333333 C541.795254,432.333333 534.333333,439.795254 534.333333,449 C534.333333,458.204746 541.795254,465.666667 551,465.666667 Z" id="Combined-Shape"></path>
        </g>
    </g>
</svg>