<?xml version="1.0" encoding="UTF-8"?>
<svg width="54px" height="54px" viewBox="0 0 54 54" version="1.1" xmlns="http://www.w3.org/2000/svg" xmlns:xlink="http://www.w3.org/1999/xlink">
    <!-- Generator: Sketch 44.1 (41455) - http://www.bohemiancoding.com/sketch -->
    <title>全部</title>
    <desc>Created with Sketch.</desc>
    <defs></defs>
    <g id="B_首页" stroke="none" stroke-width="1" fill="none" fill-rule="evenodd">
        <g id="B_1.1首页-切图" transform="translate(-635.000000, -646.000000)">
            <g id="全部" transform="translate(635.000000, 646.000000)">
                <circle id="Oval-3" fill="#F5A623" cx="27" cy="27" r="27"></circle>
                <path d="M12.6,30.2 C10.6117749,30.2 9,28.5882251 9,26.6 C9,24.6117749 10.6117749,23 12.6,23 C14.5882251,23 16.2,24.6117749 16.2,26.6 C16.2,28.5882251 14.5882251,30.2 12.6,30.2 Z M26.6,30.2 C24.6117749,30.2 23,28.5882251 23,26.6 C23,24.6117749 24.6117749,23 26.6,23 C28.5882251,23 30.2,24.6117749 30.2,26.6 C30.2,28.5882251 28.5882251,30.2 26.6,30.2 Z M41.4,30.2 C39.4117749,30.2 37.8,28.5882251 37.8,26.6 C37.8,24.6117749 39.4117749,23 41.4,23 C43.3882251,23 45,24.6117749 45,26.6 C45,28.5882251 43.3882251,30.2 41.4,30.2 Z" id="Combined-Shape" fill="#FFFFFF"></path>
            </g>
        </g>
    </g>
</svg>