<?xml version="1.0" encoding="UTF-8"?>
<svg width="44px" height="41px" viewBox="0 0 44 41" version="1.1" xmlns="http://www.w3.org/2000/svg" xmlns:xlink="http://www.w3.org/1999/xlink">
    <!-- Generator: Sketch 44.1 (41455) - http://www.bohemiancoding.com/sketch -->
    <title>提现</title>
    <desc>Created with Sketch.</desc>
    <defs></defs>
    <g id="J_现金账户" stroke="none" stroke-width="1" fill="none" fill-rule="evenodd">
        <g id="J_1.1-现金账户-未绑定银行卡-Copy" transform="translate(-86.000000, -547.000000)" fill="#F59901">
            <g id="提现" transform="translate(86.000000, 547.000000)">
                <path d="M41.238374,40.0746888 L4.60747967,40.0746888 C3.38492358,40.0746888 2.23469919,39.4674141 1.36929431,38.6018009 C0.504819512,37.7379766 0.0286178862,36.4565169 0.0286178862,35.2327361 L0.0286178862,8.93093065 L1.8601626,8.93093065 C1.8601626,9.84692353 2.1459122,10.3552996 2.6651122,10.8746962 C3.18345366,11.3930909 3.87393171,11.6789093 4.60747967,11.6789093 L41.238374,11.6789093 C41.971922,11.6789093 42.6624,11.8336978 43.1807415,12.3530944 C43.6999415,12.8715607 43.9856911,13.4303163 43.9856911,14.1648997 L43.9856911,37.0647219 C43.9856911,37.7984465 43.6990829,38.6201207 43.1807415,39.1385154 C42.6624,39.6569817 41.971922,40.0746888 41.238374,40.0746888 Z M1.8601626,12.3347745 L1.8601626,35.2336664 C1.8601626,35.9683213 2.1459122,36.7889937 2.66418211,37.30746 C3.18345366,37.8259263 3.87393171,38.242703 4.60747967,38.242703 L41.238374,38.242703 C41.4829138,38.242703 41.7127154,38.0164242 41.8858537,37.8433158 C42.0589203,37.6702075 42.1541463,37.3093206 42.1541463,37.0647219 L42.1541463,14.1648997 C42.1541463,13.9203725 42.0589203,13.8214024 41.8858537,13.648294 C41.7127154,13.4751857 41.4829138,13.5108951 41.238374,13.5108951 L4.60747967,13.5108951 C3.60377886,13.5108951 2.64865691,12.9283093 1.8601626,12.3347745 L1.8601626,12.3347745 Z" id="Fill-1"></path>
                <path d="M39.4068293,13.5108951 L4.60747967,13.5108951 C3.38492358,13.5108951 2.23469919,12.9036204 1.36929431,12.0388659 C0.504819512,11.1732526 0.0286178862,9.95777298 0.0286178862,8.73492248 C0.0286178862,7.51207198 0.504819512,6.45961046 1.36929431,5.59485593 C2.23469919,4.72924265 3.38492358,4.35096621 4.60747967,4.35096621 L19.2598374,4.35096621 C19.7653724,4.35096621 20.1756098,4.7613024 20.1756098,5.2669591 C20.1756098,5.7726158 19.7653724,6.18295199 19.2598374,6.18295199 L4.60747967,6.18295199 C3.87393171,6.18295199 3.18345366,6.33774047 2.66418211,6.85713706 C2.1459122,7.37560335 1.8601626,8.00026756 1.8601626,8.73492248 C1.8601626,9.46950584 2.1459122,10.2572597 2.6651122,10.7766563 C3.18345366,11.2951226 3.87393171,11.6789093 4.60747967,11.6789093 L39.4068293,11.6789093 C39.9132228,11.6789093 40.3226016,12.0892455 40.3226016,12.5949022 C40.3226016,13.1005589 39.9132228,13.5108951 39.4068293,13.5108951" id="Fill-2"></path>
                <path d="M38.4910569,10.5009281 C37.9846634,10.5009281 37.5752846,10.090592 37.5752846,9.58493525 L37.5752846,6.83695659 C37.5752846,6.59242943 37.4800585,6.49345926 37.3069919,6.32035092 C37.1338537,6.14724258 36.904052,6.18295199 36.6595122,6.18295199 L32.0806504,6.18295199 C31.5742569,6.18295199 31.164878,5.7726158 31.164878,5.2669591 C31.164878,4.7613024 31.5742569,4.35096621 32.0806504,4.35096621 L36.6595122,4.35096621 C37.3930602,4.35096621 38.0835382,4.5057547 38.6018797,5.02515129 C39.1210797,5.54361758 39.4068293,6.10237324 39.4068293,6.83695659 L39.4068293,9.58493525 C39.4068293,10.090592 38.9974504,10.5009281 38.4910569,10.5009281" id="Fill-3"></path>
                <path d="M5.93077073,13.1536579 L5.11573333,11.5131003 L27.6455935,0.319667205 C28.3204748,-0.0164592472 29.114478,-0.0595395376 29.8242016,0.204237789 C30.532065,0.468086678 31.1062829,1.01768241 31.3993301,1.7129067 L35.7290732,11.9857669 L34.0404033,12.6965917 L29.7115187,2.4246618 C29.6126439,2.1901533 29.4258407,2.01060439 29.1868098,1.92172445 C28.9487089,1.83384638 28.6904325,1.84665597 28.4614894,1.96022478 L5.93077073,13.1536579" id="Fill-4"></path>
                <path d="M43.9856911,29.0827742 L32.0806504,29.0827742 C30.8571642,29.0827742 29.7069398,28.4754995 28.842465,27.6098862 C27.9789203,26.746062 27.5017886,25.5305824 27.5017886,24.3068016 C27.5017886,23.0830207 27.9789203,22.0305592 28.8433951,21.166735 C29.7069398,20.3011217 30.8571642,19.9228453 32.0806504,19.9228453 L43.9856911,19.9228453 L43.9856911,29.0827742 Z M32.0806504,21.7548311 C31.3461724,21.7548311 30.6566244,21.9096195 30.139213,22.4290161 C29.6190829,22.9474824 29.3333333,23.5721466 29.3333333,24.3068016 C29.3333333,25.0413849 29.6190829,25.8291388 30.1382829,26.3466748 C30.6566244,26.8670017 31.3461724,27.2507884 32.0806504,27.2507884 L42.1541463,27.2507884 L42.1541463,21.7548311 L32.0806504,21.7548311 L32.0806504,21.7548311 Z" id="Fill-5"></path>
            </g>
        </g>
    </g>
</svg>