<?xml version="1.0" encoding="UTF-8"?>
<svg width="150px" height="150px" viewBox="0 0 150 150" version="1.1" xmlns="http://www.w3.org/2000/svg" xmlns:xlink="http://www.w3.org/1999/xlink">
    <!-- Generator: Sketch 44.1 (41455) - http://www.bohemiancoding.com/sketch -->
    <title>Group 3</title>
    <desc>Created with Sketch.</desc>
    <defs></defs>
    <g id="D_扫一扫" stroke="none" stroke-width="1" fill="none" fill-rule="evenodd">
        <g id="D_切图" transform="translate(-300.000000, -59.000000)">
            <g id="Group-3" transform="translate(300.000000, 59.000000)">
                <circle id="Oval" fill="#34C8EF" cx="75" cy="75" r="75"></circle>
                <path d="M121.598004,60.7183645 C121.598004,61.7706938 121.616702,62.8232823 121.59255,63.8750929 C121.569827,64.8536541 121.223128,65.1025727 120.449483,64.5651938 C119.452756,63.8727593 118.56861,63.019565 117.629017,62.2441576 C113.485252,58.8251572 109.350576,55.394748 105.187593,51.9990836 C103.473966,50.6013799 101.670353,49.3136151 99.956986,47.9156521 C98.2630961,46.5335057 96.6594517,45.0412907 94.9658215,43.6590146 C92.5986607,41.7273027 90.2317595,39.7893678 87.7786382,37.9700582 C84.7863806,35.7509231 81.3491281,35.060563 77.7206068,35.7047695 C75.0547916,36.1781037 72.765151,37.582549 70.6715836,39.2601566 C68.4198592,41.064557 66.1948838,42.9031837 63.98588,44.7595719 C61.7281825,46.6566685 59.5229443,48.6159949 57.2608319,50.5075168 C53.6728237,53.5075043 50.0520935,56.4682094 46.4546063,59.4567881 C44.7674686,60.8582516 43.1020158,62.2853848 41.4272138,63.7016278 C41.0411705,64.0280742 41.0859686,64.3104412 41.4703239,64.6288495 C42.952299,65.8561996 44.4384293,67.0797901 45.8832674,68.3501823 C46.6113349,68.9902402 47.0994401,68.8633176 47.8153018,68.2432251 C50.1548046,66.216613 52.5962395,64.3081076 54.9676854,62.3172775 C57.7188119,60.0075205 60.4137135,57.6304776 63.176137,55.3340741 C66.0079002,52.9801081 68.8327814,50.610455 71.7733587,48.3968947 C73.6914991,46.9530372 75.9321863,46.0613383 78.278701,45.460174 C82.7498173,44.3146299 86.5933697,45.7180381 90.0728234,48.3980615 C92.7066956,50.4264886 95.2388955,52.5866352 97.8097906,54.6962202 C100.446779,56.8597375 103.065069,59.0460724 105.711148,61.198181 C108.39631,63.3824416 111.109261,65.5328648 113.803254,67.7063648 C116.164961,69.6118884 118.534329,71.5085962 120.856043,73.4618292 C121.217285,73.7657173 121.511264,74.3384893 121.543337,74.8070267 C121.635531,76.1450937 121.600211,77.4944398 121.559958,78.8376927 C121.550479,79.1555825 121.32506,79.4672493 121.198846,79.7818979 C120.929278,79.6556236 120.621144,79.5766697 120.395855,79.3956852 C118.599773,77.952476 116.817716,76.4922833 115.035138,75.0326091 C111.534779,72.1661561 108.040133,69.2930911 104.537566,66.4293606 C100.760107,63.3409551 97.0331593,60.1874678 93.1783099,57.1983705 C89.8577923,54.6236189 86.0647514,53.7645905 81.9560458,54.9461759 C80.3505835,55.4079718 78.9571659,56.3447872 77.6803534,57.4172115 C74.1484404,60.3837505 70.6436659,63.3824416 67.1007156,66.3357568 C64.2728479,68.6928343 61.4023895,70.9985723 58.5564726,73.3339991 C57.6984255,74.0382313 56.858038,74.7642438 56.0118072,75.4827369 C55.5883672,75.8423724 55.4730606,76.1360185 55.9833701,76.6018334 C58.4294796,78.8348405 60.8415684,78.7710551 63.4205142,76.6243916 C68.6946212,72.2338308 73.9325002,67.7985425 79.2669874,63.4823979 C81.322379,61.8194403 83.8356208,61.2225543 86.447938,61.7525434 C88.2598613,62.1200873 89.8485729,63.0873693 91.2932812,64.2741405 C94.159065,66.6283658 97.063674,68.9356596 99.9360802,71.2819765 C103.171546,73.9249214 106.378705,76.6032595 109.618067,79.2416668 C113.490316,82.3951541 117.38438,85.5220641 121.267666,88.662198 C121.894061,89.1687214 121.882765,89.6506122 121.27299,90.1579135 C119.681162,91.4824974 118.107773,92.8289914 116.509452,94.145667 C113.826497,96.3557269 111.114195,98.5302641 108.443446,100.754974 C105.728547,103.016373 103.059486,105.332483 100.35108,107.601661 C97.7801849,109.755585 95.177087,111.871263 92.6015174,114.019741 C90.6296191,115.664549 88.7479665,117.426296 86.6988077,118.966998 C84.5582346,120.576672 82.3684486,122.180122 80.0079101,123.421733 C77.8801921,124.54096 75.496021,125.284863 72.9988806,124.895409 C71.6896056,124.691218 70.3759157,124.359716 69.1359805,123.895197 C65.1219354,122.391314 61.9807402,119.572311 58.7556621,116.879323 C54.5654109,113.380721 50.3423076,109.92153 46.126476,106.453654 C43.6250505,104.396186 41.1137565,102.350646 38.6007744,100.30705 C36.1480425,98.3124603 33.6873899,96.3273346 31.2307626,94.337412 C30.4186823,93.6794632 29.5827096,93.0478323 28.8034813,92.3529346 C27.7722146,91.4334916 28.2283768,90.1642661 28.1628027,89.0467254 C28.076063,87.5664377 28.1604654,86.0761673 28.1700743,84.5901752 C28.1747489,83.8527539 28.4060112,83.6849931 29.0568182,84.0260894 C29.4407839,84.2271689 29.78112,84.5177036 30.1243129,84.7891804 C33.275117,87.279922 36.4277389,89.7680707 39.5680251,92.272036 C41.2308809,93.5980461 42.8680265,94.9562081 44.5210138,96.2946641 C46.8115632,98.1497557 49.1115918,99.9930497 51.3973368,101.854105 C54.0222494,103.991434 56.5898982,106.201624 59.2689582,108.268555 C61.2899396,109.827667 63.3044285,111.456528 65.8170211,112.214693 C68.2892303,112.9608 70.7262503,112.963393 73.2281952,112.138332 C77.1295308,110.851734 80.0180383,108.13165 83.0495105,105.589699 C85.2424129,103.750942 87.4393408,101.917113 89.6178299,100.061762 C91.7068526,98.2826419 93.7643218,96.4663142 95.8543833,94.688491 C98.2102472,92.6845667 100.590133,90.7089051 102.953788,88.7143153 C104.650405,87.2827742 106.337283,85.8398243 108.029615,84.4034863 C108.391246,84.0964867 108.335541,83.8222873 107.994425,83.5377163 C106.491025,82.2843075 104.985547,81.033362 103.496171,79.7633587 C103.035464,79.3702747 102.70149,79.3757198 102.211827,79.7881209 C99.8016857,81.8179741 97.3423315,83.7892278 94.919595,85.8045608 C92.6306037,87.7085287 90.3810867,89.659817 88.0859925,91.5563951 C85.7016915,93.526482 83.28324,95.4554714 80.8810197,97.4036482 C79.0657203,98.8757683 77.3339143,100.469236 75.4112291,101.784356 C73.962106,102.775622 72.3343096,103.6095 70.6680777,104.154009 C68.7569491,104.77838 66.8423146,104.289099 64.9719589,103.493467 C61.8982856,102.186126 59.4677581,99.9983651 56.9143927,97.9664376 C53.9008399,95.5681329 50.8859885,93.1713841 47.8882773,90.7536327 C46.6391228,89.746031 45.4496991,88.6647909 44.2032714,87.6538185 C42.0732162,85.9260383 39.9097896,84.2392259 37.7785658,82.5128718 C35.0880791,80.3332785 32.4164206,78.130738 29.7351532,75.9398655 C29.5321981,75.7740494 29.3021043,75.6396075 29.109667,75.4634198 C28.465872,74.873405 28.0321738,74.245793 28.1439745,73.2578974 C28.2612288,72.222811 28.112421,71.1599805 28.1373521,70.1107627 C28.1454028,69.7739448 28.2735645,69.2068771 28.4563929,69.1583899 C28.7884187,69.0706201 29.2918462,69.181337 29.5689456,69.4025116 C32.9437404,72.0974442 36.2900982,74.8281588 39.6443768,77.5485019 C43.4558563,80.6396299 47.2617523,83.7376291 51.082581,86.8168297 C53.1077176,88.4485429 55.0900038,90.1472826 57.2229157,91.6266628 C58.7629337,92.6948087 60.4394238,93.6836118 62.1991475,94.291388 C64.7651083,95.1779012 67.2779605,94.5059507 69.4245067,92.9254473 C71.6973966,91.2519884 73.8522531,89.4162139 76.0276258,87.6140174 C78.5655391,85.5110443 81.0703407,83.3681405 83.5886466,81.241572 C85.2581248,79.8318113 86.9070867,78.3974179 88.5996781,77.0159198 C90.2898024,75.636496 92.0174532,74.3021887 93.7402996,72.9633438 C94.1926961,72.6120056 94.3199489,72.3238045 93.7583487,71.9654655 C93.3178984,71.6843949 92.9123776,71.3492623 92.4738751,71.0649506 C90.2660399,69.6341874 88.2457077,70.189198 86.3683401,71.7153801 C82.761244,74.6478225 79.1698598,77.6001006 75.5888636,80.5644357 C73.8335547,82.0172386 72.1416126,83.5469211 70.3742277,84.9845556 C68.4694618,86.5342034 66.3281097,87.3490228 63.7966889,87.0504502 C61.9177631,86.8287571 60.4839622,85.8046905 59.0866491,84.7123009 C56.8145383,82.9360334 54.5924196,81.0955917 52.3613413,79.2675958 C49.1074366,76.6011851 45.8693735,73.915587 42.6150792,71.2498245 C39.6747616,68.8415373 36.7263933,66.4428437 33.7723116,64.0514103 C32.0463488,62.6543547 30.300519,61.2816725 28.5666354,59.8944699 C27.8105203,59.2896756 27.8161039,58.6172065 28.5535206,58.0105971 C30.3797274,56.50814 32.1977536,54.9959597 34.0224022,53.4916876 C37.064522,50.9842218 40.1180686,48.4906281 43.1499303,45.9705867 C45.3256926,44.1622969 47.460812,42.3052606 49.636834,40.4972301 C52.5574144,38.0706628 55.493447,35.6626348 58.4357123,33.2622559 C59.9501499,32.0268678 61.4939335,30.827132 63.0220053,29.6083385 C64.8406808,28.1573506 66.8694532,27.1178562 69.0350873,26.2555867 C71.2822669,25.3609059 73.5658045,24.9197236 75.9614025,25.0120309 C79.5686284,25.1507512 82.9295293,26.1242562 85.9554179,28.118846 C87.5604906,29.17675 89.1608887,30.2494335 90.6905187,31.4114425 C92.1058809,32.4864596 93.4172334,33.6973448 94.7863692,34.834073 C96.7123006,36.4331156 98.6496587,38.0184158 100.581433,39.6101983 C102.223643,40.9634338 103.86793,42.3140764 105.506115,43.6717199 C109.597421,47.0625873 113.683922,50.4588999 117.776137,53.8483413 C118.856486,54.7430221 119.97722,55.5914196 121.021731,56.5253828 C121.305842,56.7793576 121.501136,57.2589148 121.527755,57.6491465 C121.597355,58.6682866 121.551258,59.6952054 121.551258,60.7190127 C121.56658,60.7183645 121.582162,60.7183645 121.598004,60.7183645" id="移动-(2)" fill="#FFFFFF"></path>
            </g>
        </g>
    </g>
</svg>