<?xml version="1.0" encoding="UTF-8"?>
<svg width="40px" height="40px" viewBox="0 0 40 40" version="1.1" xmlns="http://www.w3.org/2000/svg" xmlns:xlink="http://www.w3.org/1999/xlink">
    <!-- Generator: Sketch 44.1 (41455) - http://www.bohemiancoding.com/sketch -->
    <title>Combined Shape</title>
    <desc>Created with Sketch.</desc>
    <defs></defs>
    <g id="E_收/付钱" stroke="none" stroke-width="1" fill="none" fill-rule="evenodd">
        <g id="E_1.3收款" transform="translate(-71.000000, -217.000000)" fill="#979797">
            <g id="Group" transform="translate(40.000000, 179.000000)">
                <path d="M54.2499472,53 L58.0806245,53 C58.7724765,53 59.3333333,53.554831 59.3333333,54.25 C59.3333333,54.9403559 58.7788035,55.5 58.0806245,55.5 L52.666384,55.5 L52.666384,58.8333333 L58.0806245,58.8333333 C58.7724765,58.8333333 59.3333333,59.3881644 59.3333333,60.0833333 C59.3333333,60.7736893 58.7788035,61.3333333 58.0806245,61.3333333 L52.666384,61.3333333 L52.666384,67.1688151 C52.666384,68.0881031 51.926672,68.8333333 50.9998587,68.8333333 C50.0794621,68.8333333 49.3333333,68.0908955 49.3333333,67.1688151 L49.3333333,61.3333333 L43.9193755,61.3333333 C43.2275235,61.3333333 42.6666667,60.7785023 42.6666667,60.0833333 C42.6666667,59.3929774 43.2211965,58.8333333 43.9193755,58.8333333 L49.3333333,58.8333333 L49.3333333,55.5 L43.9193755,55.5 C43.2275235,55.5 42.6666667,54.945169 42.6666667,54.25 C42.6666667,53.5596441 43.2211965,53 43.9193755,53 L47.6516395,53 L45.0676695,50.4160301 C45.0676695,50.4160301 44.5387077,49.4763195 45.2165521,48.7984751 C45.8943964,48.1206308 46.8307356,48.652964 46.8307356,48.652964 L50.9551503,52.7773787 L55.07865,48.6538791 C55.07865,48.6538791 55.9937654,47.9692901 56.769749,48.7547217 C57.5457325,49.5401533 56.8373591,50.4125882 56.8373591,50.4125882 L54.2499472,53 Z M51,78 C39.954305,78 31,69.045695 31,58 C31,46.954305 39.954305,38 51,38 C62.045695,38 71,46.954305 71,58 C71,69.045695 62.045695,78 51,78 Z M51,74.6666667 C60.2047458,74.6666667 67.6666667,67.2047458 67.6666667,58 C67.6666667,48.7952542 60.2047458,41.3333333 51,41.3333333 C41.7952542,41.3333333 34.3333333,48.7952542 34.3333333,58 C34.3333333,67.2047458 41.7952542,74.6666667 51,74.6666667 Z" id="Combined-Shape"></path>
            </g>
        </g>
    </g>
</svg>