<?xml version="1.0" encoding="UTF-8"?>
<svg width="54px" height="54px" viewBox="0 0 54 54" version="1.1" xmlns="http://www.w3.org/2000/svg" xmlns:xlink="http://www.w3.org/1999/xlink">
    <!-- Generator: Sketch 44.1 (41455) - http://www.bohemiancoding.com/sketch -->
    <title>积分兑换</title>
    <desc>Created with Sketch.</desc>
    <defs></defs>
    <g id="B_首页" stroke="none" stroke-width="1" fill="none" fill-rule="evenodd">
        <g id="B_1.1首页-切图" transform="translate(-255.000000, -482.000000)">
            <g id="积分兑换" transform="translate(255.000000, 482.000000)">
                <circle id="Oval-3-Copy" fill="#5CDA9A" cx="27" cy="27" r="27"></circle>
                <path d="M12,26.9998411 L42,26.9998411 L42,39.0058898 C42,42.3160822 39.3112985,44.9995234 36.001155,44.9995234 L17.998845,44.9995234 C14.6857744,44.9995234 12,42.3047891 12,39.0058898 L12,26.9998411 Z M15.75,26.9998411 L15.75,39.0002068 C15.75,40.6552493 17.0895342,41.9995764 18.7419335,41.9995764 L36.9975951,41.9995764 C38.1028186,41.9995764 39,41.1077952 39,40.0077273 L39,26.9998411 L15.75,26.9998411 Z M9,21.9998727 C9,19.790804 10.7852456,18 12.9901786,18 L41.0098214,18 C43.2135362,18 45,19.7996217 45,21.9998727 L45,22.9999684 C45,25.2090371 43.2147544,26.9998411 41.0098214,26.9998411 L12.9901786,26.9998411 C10.7864638,26.9998411 9,25.2002194 9,22.9999684 L9,21.9998727 Z M12,21.998886 L12,23.0009552 C12,23.5572416 12.4468886,23.9998941 12.9981537,23.9998941 L41.0018463,23.9998941 C41.5526348,23.9998941 42,23.5526539 42,23.0009552 L42,21.998886 C42,21.4425996 41.5531114,20.999947 41.0018463,20.999947 L12.9981537,20.999947 C12.4473652,20.999947 12,21.4471872 12,21.998886 Z" id="Combined-Shape" fill="#FFFFFF"></path>
                <path d="M25.5,20.4145258 C21.24343,19.9487231 18,17.4543176 18,12.9950818 C18,9.81034598 22.4687719,9.35562646 24.7924711,10.7384855 C26.2668701,11.5799743 27,12.626985 27,12.626985 C27,12.626985 27.6489691,11.5716079 29.2929181,10.7384855 C31.9820763,9.37567093 36,9.79869306 36,12.9950818 C36,17.4543176 32.75657,19.9487231 28.5,20.4145258 L28.5,43.7446468 L25.5,43.7446468 L25.5,20.4145258 Z M25.5,17.4159313 L25.5,16.0348828 L25.4986006,16.0348828 C25.4986006,16.0348828 25.3946056,14.7863852 24.8120597,14.1218064 C23.7247586,12.8813939 21,12.1909027 21,13.7289518 C21,16.026058 22.9121592,17.1276757 25.5,17.4159313 Z M28.5,16.0005597 L28.5,17.4178585 C31.0878408,17.1358957 33,16.0523529 33,13.7289518 C33,12.3075768 30.5596416,12.7129632 29.2607061,14.1218064 C28.7147141,14.7139968 28.5307592,15.7948157 28.5,16.0005597 Z" id="Combined-Shape" fill="#FFFFFF"></path>
            </g>
        </g>
    </g>
</svg>