<?xml version="1.0" encoding="UTF-8"?>
<svg width="155px" height="128px" viewBox="0 0 155 128" version="1.1" xmlns="http://www.w3.org/2000/svg" xmlns:xlink="http://www.w3.org/1999/xlink">
    <!-- Generator: Sketch 44.1 (41455) - http://www.bohemiancoding.com/sketch -->
    <title>商铺</title>
    <desc>Created with Sketch.</desc>
    <defs></defs>
    <g id="K_积分兑换" stroke="none" stroke-width="1" fill="none" fill-rule="evenodd" opacity="0.5">
        <path d="M30.3327364,128 C28.4702931,128 26.9702319,126.490684 26.9702319,124.639218 L26.9702319,77.4782095 C26.9702319,75.6066972 28.480321,74.1174271 30.3327364,74.1174271 C32.1951797,74.1174271 33.7052689,75.6066972 33.7052689,77.4782095 L33.7052689,124.64924 C33.7052689,126.490684 32.1951797,128 30.3327364,128 Z M124.693057,128 C122.840838,128 121.320524,126.490684 121.320524,124.639218 L121.320524,77.4782095 C121.320524,75.6066972 122.840838,74.1174271 124.693057,74.1174271 C126.565725,74.1174271 128.065589,75.6066972 128.065589,77.4782095 L128.065589,124.64924 C128.055561,126.490684 126.5555,128 124.693057,128 Z M148.280728,128 L6.74506495,128 C4.88262164,128 3.38256041,126.490684 3.38256041,124.639218 C3.38256041,122.767705 4.89264958,121.25839 6.74506495,121.25839 L148.290756,121.25839 C150.163228,121.25839 151.653261,122.767705 151.653261,124.639218 C151.643233,126.490684 150.1532,128 148.280728,128 Z M155.015765,47.1509853 C155.015765,54.5969431 148.975409,60.6342062 141.535663,60.6342062 L134.790598,60.6342062 C130.773722,60.6342062 127.149508,58.863315 124.683029,56.0459256 C122.21655,58.863315 118.602364,60.6342062 114.57546,60.6342062 L111.202927,60.6342062 C107.176023,60.6342062 103.562033,58.863315 101.095554,56.0459256 C98.6290752,58.863315 95.0249171,60.6342062 90.9879847,60.6342062 L87.6154522,60.6342062 C83.5885477,60.6342062 79.9743617,58.863315 77.5078827,56.0459256 C75.0414037,58.863315 71.4372456,60.6342062 67.4003132,60.6342062 L64.0378087,60.6342062 C60.0008763,60.6342062 56.3969148,58.863315 53.9304358,56.0459256 C51.4537323,58.863315 47.8497708,60.6342062 43.8128384,60.6342062 L40.4403059,60.6342062 C36.4031769,60.6342062 32.7992154,58.863315 30.3327364,56.0459256 C27.8662574,58.863315 24.2520714,60.6342062 20.2251669,60.6342062 L13.480102,60.6342062 C6.04035667,60.6342062 0,54.5969431 0,47.1509853 L0.674624471,43.7902029 L0,43.7902029 L3.37253248,20.2148085 C3.37253248,9.04587181 12.4230395,-2.84217094e-14 23.5876715,-2.84217094e-14 L131.428094,-2.84217094e-14 C142.592726,-2.84217094e-14 151.643233,9.04587181 151.643233,20.2148085 L155.015765,43.7902029 L154.351365,43.7902029 L155.015765,47.1509853 Z M144.908196,20.2148085 C144.908196,12.7688507 138.867839,6.74161043 131.428094,6.74161043 L23.5976994,6.74161043 C16.1479262,6.74161043 10.1175974,12.7688507 10.1175974,20.2148085 L6.74506495,43.7902029 L7.41968942,43.7902029 L6.74506495,47.1509853 C6.74506495,50.8739642 9.76524329,53.8925957 13.480102,53.8925957 L20.2251669,53.8925957 C23.9500535,53.8925957 26.9702319,50.8739642 26.9702319,47.1509853 L26.9702319,33.68781 C26.9702319,31.8162978 28.480321,30.306982 30.3327364,30.306982 C32.1951797,30.306982 33.7052689,31.8162978 33.7052689,33.68781 L33.7052689,47.1509853 C33.7052689,50.8739642 36.7254472,53.8925957 40.4403059,53.8925957 L43.8026138,53.8925957 C47.5275004,53.8925957 50.5376508,50.8739642 50.5376508,47.1509853 L50.5376508,33.68781 C50.5376508,31.8162978 52.04774,30.306982 53.9101833,30.306982 C55.7726266,30.306982 57.2827158,31.8162978 57.2827158,33.68781 L57.2827158,47.1509853 C57.2827158,50.8739642 60.3028941,53.8925957 64.0177528,53.8925957 L67.3802573,53.8925957 C71.105144,53.8925957 74.1152944,50.8739642 74.1152944,47.1509853 L74.1152944,33.68781 C74.1152944,31.8162978 75.6253835,30.306982 77.4878268,30.306982 C79.3502701,30.306982 80.8501347,31.8162978 80.8501347,33.68781 L80.8501347,47.1509853 C80.8501347,50.8739642 83.8703131,53.8925957 87.5851718,53.8925957 L90.9577042,53.8925957 C94.6825909,53.8925957 97.7027692,50.8739642 97.7027692,47.1509853 L97.7027692,33.68781 C97.7027692,31.8162978 99.2128584,30.306982 101.075302,30.306982 C102.947773,30.306982 104.437806,31.8162978 104.437806,33.68781 L104.437806,47.1509853 C104.437806,50.8739642 107.457985,53.8925957 111.182871,53.8925957 L114.555404,53.8925957 C118.270262,53.8925957 121.290441,50.8739642 121.290441,47.1509853 L121.290441,33.68781 C121.290441,31.8162978 122.810558,30.306982 124.662973,30.306982 C126.535444,30.306982 128.035506,31.8162978 128.035506,33.68781 L128.035506,47.1509853 C128.035506,50.8739642 131.055684,53.8925957 134.770543,53.8925957 L141.515608,53.8925957 C145.23027,53.8925957 148.260673,50.8739642 148.260673,47.1509853 L147.596076,43.7902029 L148.260673,43.7902029 L144.908196,20.2148085 Z M104.468087,121.25839 L104.468087,94.3119934 C104.468087,92.4404812 102.978053,90.9311654 101.105582,90.9311654 L90.9879847,90.9311654 C89.1355693,90.9311654 87.6154522,92.4404812 87.6154522,94.3119934 L87.6154522,121.25839 L80.8804152,121.25839 L80.8804152,90.9311654 C80.8804152,87.2182093 83.9005935,84.2097971 87.6154522,84.2097971 L104.468087,84.2097971 C108.192973,84.2097971 111.213152,87.2182093 111.213152,90.9311654 L111.213152,121.25839 L104.468087,121.25839 Z M97.7330496,114.536825 C95.8706063,114.536825 94.3605171,113.027509 94.3605171,111.155997 C94.3605171,109.284484 95.8706063,107.795214 97.7330496,107.795214 C99.6055209,107.795214 101.105582,109.284484 101.105582,111.155997 C101.105582,113.027509 99.5954929,114.536825 97.7330496,114.536825 L97.7330496,114.536825 Z" id="商铺" fill="#C8E3F6"></path>
    </g>
</svg>