<?xml version="1.0" encoding="UTF-8"?>
<svg width="48px" height="40px" viewBox="0 0 48 40" version="1.1" xmlns="http://www.w3.org/2000/svg" xmlns:xlink="http://www.w3.org/1999/xlink">
    <!-- Generator: Sketch 44.1 (41455) - http://www.bohemiancoding.com/sketch -->
    <title>wellet</title>
    <desc>Created with Sketch.</desc>
    <defs></defs>
    <g id="F_卡包" stroke="none" stroke-width="1" fill="none" fill-rule="evenodd">
        <g id="F_切图" transform="translate(-30.000000, -205.000000)">
            <g id="Rectangle-3" transform="translate(30.000000, 201.000000)">
                <rect x="0" y="0" width="48" height="48"></rect>
                <path d="M0,12.1147857 C0,7.69623158 3.58817117,4.11428571 8.00709688,4.11428571 L39.9929031,4.11428571 C44.4151006,4.11428571 48,7.69629002 48,12.1147857 L48,35.8852143 C48,40.3037684 44.4118288,43.8857143 39.9929031,43.8857143 L8.00709688,43.8857143 C3.58489938,43.8857143 0,40.30371 0,35.8852143 L0,12.1147857 Z M3.42857143,11.5458887 L3.42857143,36.4541113 C3.42857143,38.6641536 5.21991561,40.4571429 7.42965064,40.4571429 L40.5703494,40.4571429 C42.777116,40.4571429 44.5714286,38.6649246 44.5714286,36.4541113 L44.5714286,11.5458887 C44.5714286,9.33584643 42.7800844,7.54285714 40.5703494,7.54285714 L7.42965064,7.54285714 C5.22288397,7.54285714 3.42857143,9.33507541 3.42857143,11.5458887 Z" id="Combined-Shape" fill="#F6A623" fill-rule="evenodd"></path>
                <path d="M0,18.5142857 C0,15.4846094 2.44631767,13.0285714 5.48282416,13.0285714 L42.5171758,13.0285714 C45.545256,13.0285714 48,15.4907742 48,18.5142857 L48,24 L0,24 L0,18.5142857 Z M3.42857143,20.2285714 L3.42857143,24 L44.5714286,24 L44.5714286,20.2285714 C44.5714286,18.1499072 42.8797228,16.4571429 40.792898,16.4571429 L7.20710197,16.4571429 C5.11812363,16.4571429 3.42857143,18.1456689 3.42857143,20.2285714 Z" id="Combined-Shape-Copy" fill="#F5A623" fill-rule="evenodd"></path>
                <path d="M0,28.1142857 C0,25.0846094 2.45244515,22.6259106 5.49702792,22.6230668 C5.49702792,22.6230668 18.5539226,22.6063941 19.2130192,22.6285714 C19.8721157,22.6507488 20.043846,22.9200756 20.3414323,23.3130218 C20.956681,24.1254232 22.1974017,25.3714286 24.0200556,25.3714286 C25.848171,25.3714286 27.0849226,24.1179447 27.6944071,23.3057304 C27.9865039,22.9164749 28.1369641,22.6517939 28.8333227,22.6285714 C29.5296812,22.605349 42.5006794,22.6227848 42.5006794,22.6227848 C45.5378703,22.6259807 48,25.0907742 48,28.1142857 L48,33.6 L0,33.6 L0,28.1142857 Z M3.42857143,29.8285714 L3.42857143,33.6 L44.5714286,33.6 L44.5714286,29.8285714 C44.5714286,27.7499072 42.8861533,26.0571429 40.8072609,26.0571429 L29.5004507,26.0571429 C29.5004507,26.0571429 28.0681086,28.8 24.0041568,28.8 C19.940205,28.8 18.5369165,26.0571429 18.5369165,26.0571429 L7.20207202,26.0571429 C5.11771309,26.0571429 3.42857143,27.7456689 3.42857143,29.8285714 Z" id="Combined-Shape-Copy-2" fill="#F5A623" fill-rule="evenodd"></path>
            </g>
        </g>
    </g>
</svg>