<?xml version="1.0" encoding="UTF-8"?>
<svg width="183px" height="183px" viewBox="0 0 183 183" version="1.1" xmlns="http://www.w3.org/2000/svg" xmlns:xlink="http://www.w3.org/1999/xlink">
    <!-- Generator: Sketch 44.1 (41455) - http://www.bohemiancoding.com/sketch -->
    <title>未绑定图标</title>
    <desc>Created with Sketch.</desc>
    <defs></defs>
    <g id="F_卡包" stroke="none" stroke-width="1" fill="none" fill-rule="evenodd" fill-opacity="0.5">
        <g id="F_切图" transform="translate(-404.000000, -379.000000)" fill="#C8E3F6">
            <path d="M553.572264,409.831434 L498.826835,409.831434 C496.871719,409.831434 497.849277,414.80429 497.849277,417.788092 C497.849277,419.777145 497.849277,418.782618 499.804392,418.782618 L553.572264,418.782618 L553.572264,409.831434 Z M426.484707,467.516198 L426.484707,480.44571 L487.095702,480.44571 L487.095702,467.516198 C487.095702,457.57071 479.274801,449.614053 469.499004,449.614053 L445.058963,449.614053 C434.305388,449.614053 426.484707,457.57071 426.484707,467.516198 Z M502.737285,492.380474 L416.70869,492.380474 L416.70869,392.923816 L570.191405,392.923816 L570.191405,452.597855 C576.056971,453.592382 578.012086,457.57071 581.922537,461.548816 L581.922537,393.918566 C581.922537,384.967382 575.079194,379 567.258512,379 L417.686248,379 C408.888008,379 404,385.961908 404,393.918566 L404,491.385947 C404,500.336908 408.888008,504.315237 417.686248,504.315237 L501.759508,504.315237 L502.737285,492.380474 Z M478.297243,421.766198 C478.297243,409.831434 468.521227,399.885947 456.790095,399.885947 C445.058963,399.885947 435.283165,409.831434 435.283165,421.766198 C435.283165,433.701184 445.058963,443.646671 456.790095,443.646671 C468.521227,443.646671 478.297243,433.701184 478.297243,421.766198 Z M580.944979,475.472855 C571.168963,466.521671 558.460053,465.527145 549.661814,474.478329 L543.796248,480.44571 C541.841132,482.434763 541.841132,486.413092 543.796248,488.402145 C545.751363,490.391198 549.661814,490.391198 552.594487,488.402145 L558.460053,482.434763 C563.348061,478.456434 569.213627,479.451184 572.14652,483.42929 C574.101636,485.418566 575.079194,488.402145 575.079194,491.385947 C575.079194,494.369526 574.101636,497.353329 572.14652,499.342382 L552.594487,518.239053 C543.796248,527.190237 539.885797,523.211908 537.930682,521.222855 C535.975346,519.233802 532.065115,519.233802 529.132223,521.222855 C527.177107,523.211908 527.177107,527.190237 529.132223,529.17929 C533.042673,533.157618 537.930682,535.146671 542.81869,535.146671 C548.684256,535.146671 554.549822,532.163092 560.415388,526.19571 L579.967202,507.298816 C583.877652,503.32071 586.810545,497.353329 586.810545,491.385947 C587.788103,485.418566 584.85521,479.451184 580.944979,475.472855 Z M534.997789,544.097855 C533.042673,542.108802 529.132223,542.108802 526.199549,544.097855 L521.311541,549.07071 C517.401091,553.048816 510.557967,553.048816 505.669958,549.07071 C503.714843,547.081434 502.737285,544.097855 502.737285,541.114053 C502.737285,538.130474 503.714843,535.146671 505.669958,533.157618 L523.266657,515.255474 C527.177107,511.277145 534.020231,506.30429 538.908239,511.277145 C540.863355,513.266198 544.773805,513.266198 547.706698,511.277145 C549.661814,509.288092 549.661814,505.309763 547.706698,503.32071 C538.908239,494.369526 526.199549,496.358802 515.445975,507.298816 L497.849277,525.201184 C493.938826,529.17929 491.005933,535.146671 491.005933,541.114053 C491.005933,547.081434 492.961268,551.059763 497.849277,555.038092 C502.737285,559.016198 508.602851,562 513.49064,562 C519.356426,562 525.221992,560.010947 529.132223,555.038092 L534.020231,550.065237 C536.953124,548.076184 536.953124,546.086908 534.997789,544.097855 Z M553.572264,431.711908 L498.826835,431.711908 C496.871719,431.711908 497.849277,436.684763 497.849277,439.668566 C497.849277,441.657618 497.849277,440.663092 499.804392,440.663092 L553.572264,440.663092 L553.572264,431.711908 Z M497.849277,461.548816 C497.849277,463.538092 497.849277,462.543566 499.804392,462.543566 L553.572264,462.543566 L553.572264,453.592382 L498.826835,453.592382 C496.871719,453.592382 497.849277,458.565237 497.849277,461.548816 L497.849277,461.548816 Z" id="Page-1"></path>
        </g>
    </g>
</svg>