<?xml version="1.0" encoding="UTF-8"?>
<svg width="32px" height="32px" viewBox="0 0 32 32" version="1.1" xmlns="http://www.w3.org/2000/svg" xmlns:xlink="http://www.w3.org/1999/xlink">
    <!-- Generator: Sketch 44.1 (41455) - http://www.bohemiancoding.com/sketch -->
    <title>收钱</title>
    <desc>Created with Sketch.</desc>
    <defs></defs>
    <g id="B_首页" stroke="none" stroke-width="1" fill="none" fill-rule="evenodd">
        <g id="B_1.1首页下拉菜单-确定" transform="translate(-529.000000, -292.000000)" fill="#666666">
            <g id="下拉" transform="translate(497.000000, 120.000000)">
                <g id="Group-3" transform="translate(16.000000, 152.000000)">
                    <g id="收钱" transform="translate(16.000000, 20.000000)">
                        <path d="M30.1613837,16.3537888 L26.760419,16.3537888 L26.760419,2.39757516 C26.760419,1.11530932 25.7370037,0.071552795 24.4796882,0.071552795 L7.4534665,0.071552795 C6.19615104,0.071552795 5.17273569,1.11530932 5.17273569,2.39757516 L5.17273569,16.3537888 L1.76838002,16.3537888 C0.792867235,16.3537888 0,17.1442882 0,18.1164522 C0,18.5184994 0.140316687,18.9103304 0.389768575,19.2215453 C0.442114495,19.2965168 0.504477467,19.3669168 0.57463581,19.4282932 L14.1084921,31.3401242 C14.5506066,31.7614907 15.1319074,31.9931627 15.7466114,31.9931627 C16.3580024,31.9931627 16.9393033,31.7626037 17.3368672,31.3832944 L31.3440585,19.4418882 C31.4298076,19.3680298 31.5032789,19.283995 31.5622899,19.1920099 C31.7984117,18.8853665 31.9298027,18.5060174 31.9298027,18.1164522 C31.9298417,17.1442882 31.1368965,16.3537888 30.1613837,16.3537888 Z M15.8735981,29.5978932 C15.8590987,29.6114882 15.7610719,29.6535056 15.7466114,29.6671404 L3.21500609,18.6798112 L6.27410475,18.6798112 C6.28076979,18.6798112 6.28634348,18.6752795 6.29417783,18.6752795 C6.30084287,18.6752795 6.30641657,18.6798112 6.31308161,18.6798112 C6.94341535,18.6798112 7.4534665,18.1596621 7.4534665,17.5168 L7.4534665,2.39757516 L24.4796492,2.39757516 L24.4796492,17.5168 C24.4796492,18.1596621 24.9896614,18.6798112 25.6199951,18.6798112 C25.6266602,18.6798112 25.6333252,18.6752795 25.6400682,18.6752795 C25.6467722,18.6752795 25.6533983,18.6798112 25.6601413,18.6798112 L28.6813934,18.6798112 L15.8735981,29.5978932 L15.8735981,29.5978932 Z" id="Fill-1"></path>
                        <path d="M20.5285652,14.6092522 C21.1588599,14.6092522 21.6689111,14.0891031 21.6689111,13.446241 C21.6689111,12.8033789 21.1588599,12.2832298 20.5285652,12.2832298 L17.1074884,12.2832298 L17.1074884,12.1832547 L20.4795713,8.74418882 C20.9249988,8.28990807 20.9249988,7.55386832 20.4795713,7.09958758 C20.0341437,6.64534658 19.3124872,6.64534658 18.8670597,7.09958758 L15.9672205,10.0571031 L13.0673423,7.09958758 C12.6219147,6.64534658 11.9002582,6.64534658 11.4548307,7.09958758 C11.0094032,7.55386832 11.0094032,8.28990807 11.4548307,8.74418882 L14.8269135,12.1832547 L14.8269135,12.2832298 L11.4058368,12.2832298 C10.775542,12.2832298 10.2654909,12.8033789 10.2654909,13.446241 C10.2654909,14.0891031 10.775542,14.6092522 11.4058368,14.6092522 L14.8269135,14.6092522 L14.8269135,16.3537888 L11.4058368,16.3537888 C10.775542,16.3537888 10.2654909,16.8739379 10.2654909,17.5168 C10.2654909,18.1596621 10.775542,18.6798112 11.4058368,18.6798112 L14.8269135,18.6798112 L14.8269135,21.0058733 C14.8269135,21.6486957 15.3369257,22.1688845 15.9672594,22.1688845 C16.5975932,22.1688845 17.1076054,21.6486957 17.1076054,21.0058733 L17.1076054,18.6798112 L20.5286821,18.6798112 C21.1589769,18.6798112 21.669028,18.1596621 21.669028,17.5168 C21.669028,16.8739379 21.1589769,16.3537888 20.5286821,16.3537888 L17.1076054,16.3537888 L17.1076054,14.6092522 L20.5285652,14.6092522" id="Fill-2"></path>
                    </g>
                </g>
            </g>
        </g>
    </g>
</svg>