<?xml version="1.0" encoding="UTF-8"?>
<svg width="48px" height="45px" viewBox="0 0 48 45" version="1.1" xmlns="http://www.w3.org/2000/svg" xmlns:xlink="http://www.w3.org/1999/xlink">
    <!-- Generator: Sketch 44.1 (41455) - http://www.bohemiancoding.com/sketch -->
    <title>friend_</title>
    <desc>Created with Sketch.</desc>
    <defs></defs>
    <g id="B_首页" stroke="none" stroke-width="1" fill="none" fill-rule="evenodd">
        <g id="B_1.1首页-切图" transform="translate(-501.000000, -1245.000000)">
            <g id="friend" transform="translate(501.000000, 1244.000000)">
                <rect id="Rectangle-6" x="0" y="0" width="48" height="48"></rect>
                <path d="M13.6097319,31.6708834 L4.04254888,36.2183742 C2.3978731,37.0001245 1,39.2103823 1,41.0311578 L1,43.0015411 C1,44.1052508 1.8946678,45 2.99821673,45 L38.0017833,45 C39.1067612,45 40,44.1083663 40,43.0082146 L40,41.2970741 C40,39.4882677 38.5971549,37.3126797 36.943298,36.5608044 L26.5687677,31.844224 C26.1988585,31.6694594 25.7134736,31.3179143 25.2436002,30.7409678 C24.4895375,29.8150721 24.0420299,28.5894729 24.0420299,27.0648579 C24.0420299,26.6105854 24.1387095,26.1669733 24.3225595,25.7225693 C24.5738646,25.1151116 24.9543117,24.551471 25.6019121,23.7507639 C25.7692967,23.5438059 26.387934,22.7975014 26.4057468,22.7758377 C26.7366149,22.3734384 26.9939492,22.0490072 27.2419271,21.7168217 C29.0887483,19.2428623 30.0445095,16.6981508 30.0445095,13.0856296 C30.0445095,13.1069114 29.9983762,12.5618617 29.9642795,12.1720887 L29.9620785,12.1469355 C29.9297918,11.7790773 29.9297918,11.7790773 29.9028733,11.47458 C29.8813391,11.2315966 29.8813391,11.2315966 29.8758313,11.1696953 C29.4405892,6.19222162 25.0036143,2.12314796 20.0058214,2.12314796 C15.0177898,2.12314796 10.6466073,6.18948606 10.2849134,11.1735413 L10.2848855,11.1739252 C10.2804137,11.2352186 10.2804137,11.2352186 10.2625166,11.480861 C10.2401453,11.7881661 10.2401453,11.7881661 10.2133032,12.1577508 L10.2127154,12.165851 C10.2081373,12.2289475 10.1443147,13.1181373 10.1443147,13.0856296 C10.1443147,16.7154892 11.0752857,19.2478386 12.879567,21.7073034 C13.1107761,22.0224708 13.3517222,22.3324003 13.6562378,22.7105199 C13.732453,22.8051569 14.2611217,23.4551841 14.4075995,23.63886 C15.0183013,24.4046498 15.3816796,24.9363196 15.6416987,25.5054487 C15.8778172,26.0222641 16.00222,26.5349777 16.00222,27.0648579 C16.00222,28.6380235 15.5913485,29.8436916 14.882229,30.6983674 C14.4456593,31.224549 13.9846298,31.5282468 13.6097319,31.6708834 Z" id="Rectangle-7" stroke="#A0A0A0" stroke-width="2"></path>
                <path d="M31.0170751,4.12158304 L31.0170751,4.12158304 C34.3500984,4.12158304 37.0538103,7.70292465 37.0559419,12.1118446 C37.0559419,12.1118446 37.0563813,12.878301 37.0563813,13.1129456 C37.0563813,20.1200094 32.0208837,23.0084257 32.0208837,26.0070807 C32.0208837,28.0582788 34.0388237,28.9471116 34.0388237,28.9471116 L43.3205164,32.9213558 C45.3526391,33.7914721 47,36.2940343 47,38.4900726 L47,38.9914109 C47,40.6530088 45.6551945,42 43.9963393,42 L42.1257777,42" id="Rectangle-7-Copy" stroke="#A0A0A0" stroke-width="2" stroke-linejoin="bevel"></path>
            </g>
        </g>
    </g>
</svg>