<?xml version="1.0" encoding="UTF-8"?>
<svg width="48px" height="48px" viewBox="0 0 48 48" version="1.1" xmlns="http://www.w3.org/2000/svg" xmlns:xlink="http://www.w3.org/1999/xlink">
    <!-- Generator: Sketch 44.1 (41455) - http://www.bohemiancoding.com/sketch -->
    <title>me1</title>
    <desc>Created with Sketch.</desc>
    <defs>
        <rect id="path-1" x="0" y="0" width="48" height="48" rx="24"></rect>
    </defs>
    <g id="B_首页" stroke="none" stroke-width="1" fill="none" fill-rule="evenodd">
        <g id="B_1.1首页-切图" transform="translate(-649.000000, -1168.000000)">
            <g id="me" transform="translate(649.000000, 1168.000000)">
                <circle id="Oval" fill="#FB4251" cx="24" cy="24" r="24"></circle>
                <g id="Rectangle-7">
                    <mask id="mask-2" fill="white">
                        <use xlink:href="#path-1"></use>
                    </mask>
                    <g id="Mask"></g>
                    <path d="M13.2875363,19.9780134 C13.6874492,14.4673088 18.4974202,10 24.0058214,10 L24.0058214,10 C29.5254538,10 34.3919085,14.4687189 34.87203,19.9594374 C34.87203,19.9594374 35.0445095,21.8975028 35.0445095,21.9624817 C35.0445095,30.8873037 29.0420299,32.9896442 29.0420299,35.9417099 C29.0420299,38.8937756 30.9959445,39.8169079 30.9959445,39.8169079 L41.3571567,44.5273153 C43.3690435,45.4419579 45,47.9741657 45,50.1739262 L45,51.8850667 C45,53.5373841 43.6591666,54.876852 42.0017833,54.876852 L6.99821673,54.876852 C5.34234735,54.876852 4,53.5343519 4,51.8783932 L4,49.9080099 C4,47.6997051 5.62140477,45.1388313 7.61325493,44.1920615 L17.2230442,39.624319 C17.2230442,39.624319 19.00222,39.0181766 19.00222,35.9417099 C19.00222,32.9123075 13.1443147,30.921396 13.1443147,21.9624817 C13.1443147,21.9411043 13.2875363,19.9780134 13.2875363,19.9780134 Z" fill="#FFFFFF" mask="url(#mask-2)"></path>
                </g>
            </g>
        </g>
    </g>
</svg>