<?xml version="1.0" encoding="UTF-8"?>
<svg width="40px" height="40px" viewBox="0 0 40 40" version="1.1" xmlns="http://www.w3.org/2000/svg" xmlns:xlink="http://www.w3.org/1999/xlink">
    <!-- Generator: Sketch 44.1 (41455) - http://www.bohemiancoding.com/sketch -->
    <title>警告</title>
    <desc>Created with Sketch.</desc>
    <defs></defs>
    <g id="J_现金账户" stroke="none" stroke-width="1" fill="none" fill-rule="evenodd">
        <g id="J_1.1-现金账户-未绑定银行卡-Copy" transform="translate(-543.000000, -175.000000)" fill="#FB4251">
            <g id="警告" transform="translate(543.000000, 175.000000)">
                <path d="M20.0016216,39.9940541 C31.0264865,39.9940541 39.9978378,31.0238378 39.9978378,19.9978378 C39.9978378,8.97183784 31.0264865,0.0027027027 20.0016216,0.0027027027 C8.97675676,0.0027027027 0.00540540541,8.97297297 0.00540540541,19.9978378 C0.00540540541,31.0227027 8.97675676,39.9940541 20.0016216,39.9940541 Z M20.0016216,1.66324324 C30.1121081,1.66324324 38.3372973,9.88848649 38.3372973,19.9989189 C38.3372973,30.1094054 30.1121081,38.3346486 20.0016216,38.3346486 C9.89113514,38.3346486 1.66594595,30.1083243 1.66594595,19.9978378 C1.66594595,9.88735135 9.89113514,1.66324324 20.0016216,1.66324324 L20.0016216,1.66324324 Z" id="Fill-1"></path>
                <polyline id="Fill-2" points="21.0698919 22.782 21.3676757 8.40724324 18.7085946 8.40724324 18.9942162 22.782 21.0698919 22.782"></polyline>
                <path d="M20.1355676,28.7621622 C20.5595676,28.7621622 20.9315135,28.6005405 21.2514595,28.2761622 C21.5714054,27.9518378 21.7318919,27.5732432 21.7318919,27.1414595 C21.7318919,26.7008649 21.5680541,26.3156216 21.2392973,25.9868649 C20.9104865,25.6580541 20.5219459,25.4942162 20.0713514,25.4942162 C19.6130811,25.4942162 19.218973,25.6525405 18.8912973,25.9680541 C18.5636216,26.2835135 18.3986486,26.6754054 18.3986486,27.1425946 C18.3986486,27.5754595 18.5591892,27.9529189 18.8790811,28.2772973 C19.199027,28.6016757 19.6163784,28.7621622 20.1355676,28.7621622" id="Fill-3"></path>
            </g>
        </g>
    </g>
</svg>