<?xml version="1.0" encoding="UTF-8"?>
<svg width="72px" height="72px" viewBox="0 0 72 72" version="1.1" xmlns="http://www.w3.org/2000/svg" xmlns:xlink="http://www.w3.org/1999/xlink">
    <!-- Generator: Sketch 44.1 (41455) - http://www.bohemiancoding.com/sketch -->
    <title>Group 2</title>
    <desc>Created with Sketch.</desc>
    <defs>
        <rect id="path-1" x="0" y="0" width="72" height="72"></rect>
    </defs>
    <g id="M_好友" stroke="none" stroke-width="1" fill="none" fill-rule="evenodd">
        <g id="M_1.1好友" transform="translate(-20.000000, -241.000000)">
            <g id="Group-5" transform="translate(0.000000, 221.000000)">
                <g id="Group-3" transform="translate(20.000000, 16.000000)">
                    <g id="Group-2" transform="translate(0.000000, 4.000000)">
                        <mask id="mask-2" fill="white">
                            <use xlink:href="#path-1"></use>
                        </mask>
                        <use id="Rectangle-9" fill="#FD9F56" xlink:href="#path-1"></use>
                        <path d="M14.4815871,60 C13.6644062,60 13,59.3353052 13,58.5183822 C13,53.8876672 14.4760221,49.4883415 17.2682035,45.7956057 C18.6106649,44.0205471 20.2155614,42.4727176 22.0376699,41.1957114 C23.6582071,40.0602106 25.4166985,39.1630133 27.275419,38.5228109 C25.2334625,37.3810992 23.5005117,35.7539328 22.2313916,33.7780713 C20.7711859,31.5044916 19.9989352,28.8716697 19.9989352,26.1646673 C19.9989352,18.3542104 26.3518581,12 34.1600075,12 C41.9683912,12 48.3206112,18.3541518 48.3206112,26.1647259 C48.3206112,28.8714354 47.5490635,31.5033783 46.089385,33.7764892 C44.8204406,35.7525266 43.0881927,37.3799859 41.0466462,38.5215804 C42.7070173,39.0939305 44.2888336,39.8716539 45.7586464,40.8384028 L46.1683498,41.1227614 C46.8383211,41.5960283 46.9983597,42.5219955 46.5279095,43.1887997 C46.2490135,43.5823782 45.7958442,43.8165214 45.3153769,43.8165214 C45.0094174,43.8165214 44.7151736,43.7232977 44.4639271,43.5464599 L44.1266862,43.3115549 C41.162106,41.3616507 37.7105562,40.3308581 34.1453041,40.3308581 C24.1195775,40.3308581 15.9627057,48.4895415 15.9627057,58.518265 C15.9627057,59.3353052 15.2981823,60 14.4815871,60 Z M34.1600075,14.9638802 C27.9852242,14.9638802 22.9616409,19.9884081 22.9616409,26.1647845 C22.9616409,32.3417469 27.9852242,37.3672709 34.1600075,37.3672709 C40.3345565,37.3672709 45.3579641,32.3417469 45.3579641,26.1647845 C45.3579641,19.9884081 40.3345565,14.9638802 34.1600075,14.9638802 Z M58.0031803,50.7393319 L52.199321,50.7393319 L52.199321,44.9837217 C52.199321,44.7089726 51.9659998,44.4854936 51.6796057,44.4854936 L49.9866059,44.4854936 C49.7023206,44.4854936 49.4704053,44.7089726 49.4704053,44.9837217 L49.4704053,50.7393319 L43.3648627,50.7393319 C43.0791129,50.7393319 42.8455573,50.9650961 42.8455573,51.2431265 L42.8455573,53.032482 C42.8455573,53.3091648 43.0789372,53.5329954 43.3648627,53.5329954 L49.4704053,53.5329954 L49.4704053,59.2872578 C49.4704053,59.5637647 49.7022621,59.7873024 49.9865473,59.7873024 L51.6795471,59.7873024 C51.9655897,59.7873024 52.1992624,59.5637647 52.1992624,59.2872578 L52.1992624,53.5329954 L58.0031218,53.5329954 C58.2895159,53.5329954 58.5226028,53.3091648 58.5226028,53.032482 L58.5226028,51.2426577 C58.5212555,50.9665609 58.2875242,50.7393319 58.0031803,50.7393319 L58.0031803,50.7393319 Z" id="添加好友" fill="#FFFFFF" mask="url(#mask-2)"></path>
                    </g>
                </g>
            </g>
        </g>
    </g>
</svg>