<?xml version="1.0" encoding="UTF-8"?>
<svg width="128px" height="100px" viewBox="0 0 128 100" version="1.1" xmlns="http://www.w3.org/2000/svg" xmlns:xlink="http://www.w3.org/1999/xlink">
    <!-- Generator: Sketch 44.1 (41455) - http://www.bohemiancoding.com/sketch -->
    <title>信用卡</title>
    <desc>Created with Sketch.</desc>
    <defs></defs>
    <g id="J_现金账户" stroke="none" stroke-width="1" fill="none" fill-rule="evenodd" fill-opacity="0.5">
        <g id="J_1.1-现金账户-未绑定银行卡-Copy" transform="translate(-30.000000, -145.000000)" fill="#C8E3F6">
            <path d="M54.8888102,209.009769 L97.5554042,209.009769 C99.5187502,209.009769 101.111135,207.419318 101.111135,205.453707 C101.111135,203.488314 99.5187502,201.897645 97.5554042,201.897645 L54.8888102,201.897645 C52.9254642,201.897645 51.333297,203.488314 51.333297,205.453707 C51.333297,207.419318 52.9254642,209.009769 54.8888102,209.009769 Z M54.8888102,223.234453 L83.3333515,223.234453 C85.2964795,223.234453 86.8888647,221.643784 86.8888647,219.678173 C86.8888647,217.71605 85.2964795,216.122111 83.3333515,216.122111 L54.8888102,216.122111 C52.9254642,216.122111 51.333297,217.71605 51.333297,219.678173 C51.333297,221.643566 52.9254642,223.234453 54.8888102,223.234453 Z M118.888919,223.234453 L133.11119,223.234453 C135.074318,223.234453 136.666703,221.643784 136.666703,219.678173 L136.666703,205.453925 C136.666703,203.488314 135.074318,201.897863 133.11119,201.897863 L118.888919,201.897863 C116.925573,201.897863 115.333406,203.488314 115.333406,205.453925 L115.333406,219.678173 C115.333406,221.643566 116.925573,223.234453 118.888919,223.234453 Z M150.888974,145 L37.1110264,145 C33.1838985,145 30,148.184608 30,152.112124 L30,237.458701 C30,241.386435 33.1838985,244.570825 37.1110264,244.570825 L150.888974,244.570825 C154.816101,244.570825 158,241.386435 158,237.458701 L158,152.112124 C158,148.184608 154.816101,145 150.888974,145 Z M37.1110264,237.458701 L150.888974,237.458701 L150.888974,187.673179 L37.1110264,187.673179 L37.1110264,237.458701 Z M37.1110264,166.33659 L150.888974,166.33659 L150.888974,152.112124 L37.1110264,152.112124 L37.1110264,166.33659 Z" id="信用卡"></path>
        </g>
    </g>
</svg>