<?xml version="1.0" encoding="UTF-8"?>
<svg width="48px" height="45px" viewBox="0 0 48 45" version="1.1" xmlns="http://www.w3.org/2000/svg" xmlns:xlink="http://www.w3.org/1999/xlink">
    <!-- Generator: Sketch 44.1 (41455) - http://www.bohemiancoding.com/sketch -->
    <title>friend1</title>
    <desc>Created with Sketch.</desc>
    <defs></defs>
    <g id="B_首页" stroke="none" stroke-width="1" fill="none" fill-rule="evenodd">
        <g id="B_1.1首页-切图" transform="translate(-481.000000, -1169.000000)">
            <g id="friend" transform="translate(481.000000, 1168.000000)">
                <rect id="Rectangle-6" x="0" y="0" width="48" height="48"></rect>
                <path d="M9.28753625,10.9780134 C9.6874492,5.46730879 14.4974202,1 20.0058214,1 L20.0058214,1 C25.5254538,1 30.3919085,5.46871887 30.87203,10.9594374 C30.87203,10.9594374 31.0445095,12.8975028 31.0445095,12.9624817 C31.0445095,21.8873037 25.0420299,23.9896442 25.0420299,26.9417099 C25.0420299,29.8937756 26.9959445,30.8169079 26.9959445,30.8169079 L37.3571567,35.5273153 C39.3690435,36.4419579 41,38.9741657 41,41.1739262 L41,42.8850667 C41,44.5373841 39.6591666,45.876852 38.0017833,45.876852 L2.99821673,45.876852 C1.34234735,45.876852 0,44.5343519 0,42.8783932 L0,40.9080099 C0,38.6997051 1.62140477,36.1388313 3.61325493,35.1920615 L13.2230442,30.624319 C13.2230442,30.624319 15.00222,30.0181766 15.00222,26.9417099 C15.00222,23.9123075 9.14431467,21.921396 9.14431467,12.9624817 C9.14431467,12.9411043 9.28753625,10.9780134 9.28753625,10.9780134 Z" id="Rectangle-7" fill="#FB4B59"></path>
                <path d="M31,4 L31,4 C34.3330233,4 37.0367352,7.58134161 37.0388669,11.9902616 C37.0388669,11.9902616 37.0393063,12.756718 37.0393063,12.9913625 C37.0393063,19.9984264 32.0038086,22.8868427 32.0038086,25.8854977 C32.0038086,27.9366958 34.0217487,28.8255285 34.0217487,28.8255285 L43.3034414,32.7997728 C45.335564,33.6698891 46.9829249,36.1724513 46.9829249,38.3684895 L46.9829249,38.8698279 C46.9829249,40.5314258 45.6381195,41.878417 43.9792643,41.878417 L42.1087026,41.878417" id="Rectangle-7-Copy" stroke="#FB4B59" stroke-width="2" stroke-linejoin="bevel"></path>
            </g>
        </g>
    </g>
</svg>