<?xml version="1.0" encoding="UTF-8"?>
<svg width="54px" height="54px" viewBox="0 0 54 54" version="1.1" xmlns="http://www.w3.org/2000/svg" xmlns:xlink="http://www.w3.org/1999/xlink">
    <!-- Generator: Sketch 44.1 (41455) - http://www.bohemiancoding.com/sketch -->
    <title>卡包</title>
    <desc>Created with Sketch.</desc>
    <defs></defs>
    <g id="B_首页" stroke="none" stroke-width="1" fill="none" fill-rule="evenodd">
        <g id="B_1.1首页-切图" transform="translate(-443.000000, -646.000000)">
            <g id="卡包" transform="translate(443.000000, 646.000000)">
                <circle id="Oval-3" fill="#24C79B" cx="27" cy="27" r="27"></circle>
                <g id="Group-4" transform="translate(9.000000, 12.000000)" fill="#FFFFFF">
                    <path d="M0,7.99350974 C0,3.57881621 3.58343124,0 8.00074125,0 L27.9992587,0 C32.4179461,0 36,3.58319655 36,7.99350974 L36,21.8350617 C36,26.2497552 32.4165688,29.8285714 27.9992587,29.8285714 L8.00074125,29.8285714 C3.58205387,29.8285714 0,26.2453749 0,21.8350617 L0,7.99350974 Z M2.57142857,6.56505119 L2.57142857,23.2635202 C2.57142857,25.4619226 4.36336334,27.2571429 6.5738269,27.2571429 L29.4261731,27.2571429 C31.6361853,27.2571429 33.4285714,25.4691371 33.4285714,23.2635202 L33.4285714,6.56505119 C33.4285714,4.36664886 31.6366367,2.57142857 29.4261731,2.57142857 L6.5738269,2.57142857 C4.36381475,2.57142857 2.57142857,4.35943432 2.57142857,6.56505119 Z" id="Combined-Shape"></path>
                    <path d="M0,10.8 C0,8.52774274 1.83473825,6.68571429 4.11211812,6.68571429 L31.8878819,6.68571429 C34.158942,6.68571429 36,8.53236633 36,10.8 L36,14.9142857 L0,14.9142857 L0,10.8 Z M2.57142857,12.0857143 L2.57142857,14.9142857 L33.4285714,14.9142857 L33.4285714,12.0857143 C33.4285714,10.5267161 32.1659396,9.25714286 30.6084042,9.25714286 L5.39159576,9.25714286 C3.83859272,9.25714286 2.57142857,10.5235374 2.57142857,12.0857143 Z" id="Combined-Shape-Copy"></path>
                    <path d="M0,18 C0,15.7277427 1.85376198,13.883704 4.12277094,13.8815858 C4.12277094,13.8815858 13.915442,13.8690813 14.4097644,13.8857143 C14.9040868,13.9023473 15.0328845,14.1043424 15.2560743,14.399052 C15.7175107,15.0083531 16.6480513,15.9428571 18.0150417,15.9428571 C19.3861282,15.9428571 20.3136919,15.0027442 20.7708053,14.3935835 C20.9898779,14.1016419 21.1027231,13.9031311 21.624992,13.8857143 C22.1472609,13.8682975 31.8755095,13.8813743 31.8755095,13.8813743 C34.1534027,13.8837712 36,15.7323663 36,18 L36,22.1142857 L0,22.1142857 L0,18 Z M2.57142857,19.2857143 L2.57142857,22.1142857 L33.4285714,22.1142857 L33.4285714,19.2857143 C33.4285714,17.7267161 32.164615,16.4571429 30.6054457,16.4571429 L22.125338,16.4571429 C22.125338,16.4571429 21.0510815,18.5142857 18.0031176,18.5142857 C14.9551537,18.5142857 13.9026874,16.4571429 13.9026874,16.4571429 L5.40155402,16.4571429 C3.83828481,16.4571429 2.57142857,17.7235374 2.57142857,19.2857143 Z" id="Combined-Shape-Copy-2"></path>
                </g>
            </g>
        </g>
    </g>
</svg>