<?xml version="1.0" encoding="UTF-8"?>
<svg width="101px" height="101px" viewBox="0 0 101 101" version="1.1" xmlns="http://www.w3.org/2000/svg" xmlns:xlink="http://www.w3.org/1999/xlink">
    <!-- Generator: Sketch 44.1 (41455) - http://www.bohemiancoding.com/sketch -->
    <title>忘记密码</title>
    <desc>Created with Sketch.</desc>
    <defs>
        <circle id="path-1" cx="45.5" cy="45.5" r="45.5"></circle>
        <filter x="-8.8%" y="-7.7%" width="117.6%" height="117.6%" filterUnits="objectBoundingBox" id="filter-2">
            <feOffset dx="0" dy="1" in="SourceAlpha" result="shadowOffsetOuter1"></feOffset>
            <feGaussianBlur stdDeviation="2.5" in="shadowOffsetOuter1" result="shadowBlurOuter1"></feGaussianBlur>
            <feColorMatrix values="0 0 0 0 0   0 0 0 0 0   0 0 0 0 0  0 0 0 0.2 0" type="matrix" in="shadowBlurOuter1"></feColorMatrix>
        </filter>
    </defs>
    <g id="A_登录注册" stroke="none" stroke-width="1" fill="none" fill-rule="evenodd">
        <g id="A_1.1-手势验证-切图" transform="translate(-95.000000, -355.000000)">
            <g id="忘记密码" transform="translate(100.000000, 359.000000)">
                <g id="Oval-2">
                    <use fill="black" fill-opacity="1" filter="url(#filter-2)" xlink:href="#path-1"></use>
                    <use fill="#FFFFFF" fill-rule="evenodd" xlink:href="#path-1"></use>
                </g>
                <path d="M58.3711103,38.5833924 L56.9312405,38.5833924 C57.0645642,37.867842 57.1445063,37.1257633 57.1445063,36.3571565 L57.1445063,34.1309853 C57.1445063,27.982454 52.1315877,23 45.9453165,23 C39.7591103,23 34.7461266,27.982454 34.7461266,34.1309853 L34.7461266,36.3571565 C34.7461266,37.1257633 34.8261338,37.867842 34.9594575,38.5833924 L33.5195877,38.5833924 C30.4797685,38.5833924 28,41.1806352 28,44.3609167 L28,61.7199533 C28,64.9266984 30.4797685,67.5239412 33.5195877,67.5239412 L58.3177939,67.5239412 C61.3575479,67.5239412 63.8373816,64.9266984 63.8373816,61.7199533 L63.8373816,44.3609167 C63.890698,41.1806352 61.4108644,38.5833924 58.3711103,38.5833924 Z M39.2525063,34.1309853 C39.2525063,30.4471851 42.2656347,27.4524071 45.9720072,27.4524071 C49.6783797,27.4524071 52.6915081,30.4471851 52.6915081,34.1309853 L52.6915081,38.5833924 L39.2525063,38.5833924 L39.2525063,34.1309853 Z M52.4781772,63.5751176 L51.1983219,61.5609134 C48.6651718,63.2305741 45.5187197,63.7076293 42.4522749,62.5680155 C38.2125425,60.9778747 35.7060832,56.7639629 36.132745,52.4705958 L39.0924919,52.4441323 C38.6392043,55.5713573 40.3991031,58.6721836 43.4655479,59.8382609 C45.5720362,60.6333313 47.8652297,60.2887878 49.6250633,59.1757022 C49.2784087,58.6456553 48.2652007,57.0555146 48.2652007,57.0555146 L55.3846727,56.5519959 L52.4781772,63.5751176 Z M55.9712839,53.9282248 L53.011472,53.954753 C53.4648246,50.8274633 51.7049259,47.7267017 48.638481,46.5605597 C46.3452875,45.7124976 43.9188354,46.1630245 42.1856275,47.43515 L43.7055045,49.7938977 L37.0926365,49.8468894 L39.3591392,42.982743 L40.5857432,44.9174272 C43.1188933,43.2477664 46.6119349,42.6647278 49.6783797,43.8043416 C53.8914213,45.4210106 56.3979458,49.6348577 55.9712839,53.9282248 L55.9712839,53.9282248 Z" id="忘记密码-密码重置" fill="#F28041"></path>
            </g>
        </g>
    </g>
</svg>