<?xml version="1.0" encoding="UTF-8"?>
<svg width="54px" height="54px" viewBox="0 0 54 54" version="1.1" xmlns="http://www.w3.org/2000/svg" xmlns:xlink="http://www.w3.org/1999/xlink">
    <!-- Generator: Sketch 44.1 (41455) - http://www.bohemiancoding.com/sketch -->
    <title>转账</title>
    <desc>Created with Sketch.</desc>
    <defs></defs>
    <g id="B_首页" stroke="none" stroke-width="1" fill="none" fill-rule="evenodd">
        <g id="B_1.1首页-切图" transform="translate(-67.000000, -646.000000)">
            <g id="转账" transform="translate(67.000000, 646.000000)">
                <circle id="Oval-3" fill="#FB4251" cx="27" cy="27" r="27"></circle>
                <path d="M30.0452881,22.5 L32.6232671,22.5 C33.2460713,22.5 33.7509539,22.9993479 33.7509539,23.625 C33.7509539,24.2463203 33.2382663,24.75 32.6232671,24.75 L28.4982522,24.75 L28.4982522,27.75 L32.6232671,27.75 C33.2460713,27.75 33.7509539,28.2493479 33.7509539,28.875 C33.7509539,29.4963203 33.2382663,30 32.6232671,30 L28.4982522,30 L28.4982522,35.2519336 C28.4982522,36.0792928 27.8325115,36.75 26.9983794,36.75 C26.1700226,36.75 25.4985066,36.081806 25.4985066,35.2519336 L25.4985066,30 L21.3797855,30 C20.7569812,30 20.2520987,29.5006521 20.2520987,28.875 C20.2520987,28.2536797 20.7647863,27.75 21.3797855,27.75 L25.4985066,27.75 L25.4985066,24.75 L21.3797855,24.75 C20.7569812,24.75 20.2520987,24.2506521 20.2520987,23.625 C20.2520987,23.0036797 20.7647863,22.5 21.3797855,22.5 L23.9564896,22.5 L21.7060774,20.2495878 C21.7060774,20.2495878 21.2300118,19.4038482 21.8400717,18.7937883 C22.4501316,18.1837284 23.2928369,18.6628283 23.2928369,18.6628283 L27.0048102,22.3748016 L30.7159598,18.6636519 C30.7159598,18.6636519 31.6389665,18.1554279 32.2379489,18.7544103 C32.8369313,19.3533927 32.298798,20.24649 32.298798,20.24649 L30.0452881,22.5 Z M40.9708027,21.5276293 C38.7843907,15.9497331 33.3541742,12 27.0015263,12 C19.7452679,12 13.6925203,17.153279 12.3028271,24 L9.25190681,24 C10.68002,15.48686 18.0832937,9 27.0015263,9 C36.9418088,9 45,17.0588745 45,27 L44.9962377,26.9976505 L44.9966059,26.9986424 L44.7628689,26.8519109 L41.8744188,25.0480655 C41.8739746,25.0446468 41.8735292,25.0412285 41.8730827,25.0378106 L37.8447439,22.5089694 L40.9708027,21.5276293 Z M9.0030567,27.0122915 L9,27.000172 L9.00305264,27.0022254 L12.1511892,29.1182346 L15.7495835,31.5401807 L12.9734223,32.3198333 C15.1199998,37.9781219 20.5911229,42 27.0015263,42 C34.2577847,42 40.3105323,36.846721 41.7002255,30 L44.7511458,30 C43.3230326,38.51314 35.9197589,45 27.0015263,45 C17.0653409,45 9.00969568,36.9477675 9.0030567,27.0122915 Z" id="Combined-Shape" fill="#FFFFFF"></path>
            </g>
        </g>
    </g>
</svg>