<?xml version="1.0" encoding="UTF-8"?>
<svg width="54px" height="54px" viewBox="0 0 54 54" version="1.1" xmlns="http://www.w3.org/2000/svg" xmlns:xlink="http://www.w3.org/1999/xlink">
    <!-- Generator: Sketch 44.1 (41455) - http://www.bohemiancoding.com/sketch -->
    <title>付钱</title>
    <desc>Created with Sketch.</desc>
    <defs>
        <rect id="path-1" x="0" y="0" width="36" height="36"></rect>
    </defs>
    <g id="B_首页" stroke="none" stroke-width="1" fill="none" fill-rule="evenodd">
        <g id="B_1.1首页-切图" transform="translate(-67.000000, -482.000000)">
            <g id="付钱" transform="translate(67.000000, 482.000000)">
                <circle id="Oval-3" fill="#FDCC08" cx="27" cy="27" r="27"></circle>
                <g id="pay" transform="translate(9.000000, 9.000000)">
                    <g id="Combined-Shape-+-Combined-Shape-Mask">
                        <mask id="mask-2" fill="white">
                            <use xlink:href="#path-1"></use>
                        </mask>
                        <g id="Mask"></g>
                        <path d="M27.2571429,4.11428571 L17.9486909,4.11428571 C16.8340157,4.11428571 15.9428571,5.00936936 15.9428571,6.11351099 L15.9428571,26.8007747 C15.9428571,27.9068386 16.8408995,28.8 17.9486909,28.8 L27.2571429,28.8 L27.2571429,4.11428571 Z M29.8285714,4.11428571 L29.8285714,28.8 L31.4227377,28.8 C32.5374128,28.8 33.4285714,27.9049164 33.4285714,26.8007747 L33.4285714,6.11351099 C33.4285714,5.00744711 32.5305291,4.11428571 31.4227377,4.11428571 L29.8285714,4.11428571 Z M14.4478324,28.8 L15.9428571,28.8 L15.9428571,20.0571429 L13.3714286,20.0571429 L13.3714286,22.7140982 L13.3714286,7.54323215 C13.3714286,4.22931654 16.0560838,1.54285714 19.3760609,1.54285714 L29.9953676,1.54285714 C33.3116345,1.54285714 36,4.22936037 36,7.54323215 L36,25.3710536 C36,28.6849692 33.3153448,31.3714286 29.9953676,31.3714286 L19.3760609,31.3714286 C17.3356411,31.3714286 15.5329225,30.3544132 14.4478324,28.8 Z" id="Combined-Shape" fill="#FFFFFF" mask="url(#mask-2)"></path>
                        <path d="M2.86032749,29.5621438 L2.86032749,29.5364249 L18.8099648,29.5364249 C19.9443748,29.5364249 20.8603275,28.6154106 20.8603275,27.479282 C20.8603275,26.3352325 19.9423488,25.4221391 18.8099648,25.4221391 L8.5555121,25.4221391 L8.5555121,25.403545 C7.94980159,25.2995511 7.48889892,24.7718128 7.48889892,24.1364249 C7.48889892,23.5010369 7.94980159,22.9732986 8.5555121,22.8693047 L8.5555121,22.8507106 L18.8023066,22.8507106 C21.3590809,22.8507106 23.4317561,24.9281941 23.4317561,27.479282 C23.4317561,30.0355714 21.3651012,32.1078534 18.8023066,32.1078534 L2.86032749,32.1078534 L2.86032749,32.0821345 C2.27346569,31.9630078 1.83175606,31.4441569 1.83175606,30.8221391 C1.83175606,30.2001214 2.27346569,29.6812705 2.86032749,29.5621438 Z M4.65751703,14.1074563 C4.88538485,13.904273 5.18436433,13.7807549 5.50749064,13.7807549 L22.4900881,13.7807549 C23.1984394,13.7807549 23.7726715,14.3514382 23.7726715,15.0664692 C23.7726715,15.7765495 23.1876458,16.3521834 22.4900881,16.3521834 L6.06794657,16.3521834 L-2.27764649,26.298074 C-2.73323113,26.8410186 -3.53972425,26.914334 -4.08746973,26.4547209 C-4.63142286,25.9982901 -4.70605563,25.1917066 -4.24747506,24.6451915 L4.39556819,14.3448137 C4.47360917,14.2518081 4.56194691,14.1725829 4.65751703,14.1074563 Z" id="Combined-Shape" fill="#FFFFFF" mask="url(#mask-2)" transform="translate(9.613312, 22.944304) rotate(-40.000000) translate(-9.613312, -22.944304) "></path>
                    </g>
                </g>
            </g>
        </g>
    </g>
</svg>