<?xml version="1.0" encoding="UTF-8"?>
<svg width="54px" height="54px" viewBox="0 0 54 54" version="1.1" xmlns="http://www.w3.org/2000/svg" xmlns:xlink="http://www.w3.org/1999/xlink">
    <!-- Generator: Sketch 44.1 (41455) - http://www.bohemiancoding.com/sketch -->
    <title>积分钱包</title>
    <desc>Created with Sketch.</desc>
    <defs></defs>
    <g id="B_首页" stroke="none" stroke-width="1" fill="none" fill-rule="evenodd">
        <g id="B_1.1首页-切图" transform="translate(-443.000000, -482.000000)">
            <g id="积分钱包" transform="translate(443.000000, 482.000000)">
                <circle id="Oval-3-Copy-2" fill="#F28041" cx="27" cy="27" r="27"></circle>
                <g id="purse" transform="translate(9.000000, 9.000000)">
                    <rect id="Rectangle-3" x="0" y="0" width="36" height="36"></rect>
                    <path d="M32.9094427,15.9428571 L30.3428571,15.9428571 L30.3428571,26.2285714 L32.9094353,26.2285714 C32.7612222,30.5141078 29.2350051,33.9428571 24.9046341,33.9428571 L8.00965161,33.9428571 C3.58604318,33.9428571 0,30.3673959 0,25.9476519 L0,16.2237767 C0,11.8081468 3.58506203,8.22857143 8.00965161,8.22857143 L24.9046341,8.22857143 C29.2341296,8.22857143 32.7613193,11.653514 32.9094427,15.9428571 Z M2.57142857,14.7907702 L2.57142857,27.3806584 C2.57142857,29.5818357 4.36611527,31.3714286 6.57997352,31.3714286 L26.3343122,31.3714286 C28.5420942,31.3714286 30.3428571,29.5846999 30.3428571,27.3806584 L30.3428571,14.7907702 C30.3428571,12.5895928 28.5481704,10.8 26.3343122,10.8 L6.57997352,10.8 C4.37219147,10.8 2.57142857,12.5867287 2.57142857,14.7907702 Z" id="Combined-Shape" fill="#FFFFFF" fill-rule="evenodd"></path>
                    <path d="M27.4382835,7.58135682 L27.3015406,7.34451115 C25.0930383,3.5192729 20.1979386,2.21083561 16.3661316,4.42313041 L10.895923,7.58135682 L16.0387801,7.58135682 L18.9037406,5.92727115 C20.8105578,4.82636973 23.2573516,5.48262747 24.3624588,7.3967293 L24.4690535,7.58135682 L27.4382835,7.58135682 Z" id="Combined-Shape" fill="#FFFFFF" fill-rule="evenodd"></path>
                    <path d="M19.5428571,21.0857143 C19.5428571,18.2453927 21.8484808,15.9428571 24.6823054,15.9428571 L31.9951742,15.9428571 C34.2069784,15.9428571 36,17.7344918 36,19.9490352 L36,22.2223934 C36,24.4349444 34.207469,26.2285714 31.9951742,26.2285714 L24.6823054,26.2285714 C21.8438665,26.2285714 19.5428571,23.9202564 19.5428571,21.0857143 Z M21.6,21.0857143 C21.6,22.7864395 22.9802098,24.1714286 24.6827849,24.1714286 L32.9432445,24.1714286 C33.5035683,24.1714286 33.9428571,23.727498 33.9428571,23.1798818 L33.9428571,18.9915468 C33.9428571,18.4438339 33.4953153,18 32.9432445,18 L24.6827849,18 C22.9799549,18 21.6,19.3815213 21.6,21.0857143 Z M24.6857143,22.6285714 C23.8336178,22.6285714 23.1428571,21.9378108 23.1428571,21.0857143 C23.1428571,20.2336178 23.8336178,19.5428571 24.6857143,19.5428571 C25.5378108,19.5428571 26.2285714,20.2336178 26.2285714,21.0857143 C26.2285714,21.9378108 25.5378108,22.6285714 24.6857143,22.6285714 Z" id="Combined-Shape" fill="#FFFFFF" fill-rule="evenodd"></path>
                    <g id="Group-6" stroke-width="1" fill-rule="evenodd" transform="translate(5.657143, 14.400000)" fill="#FFFFFF">
                        <path d="M3.93640157,7.84888163 C3.88238838,7.7778989 3.81912182,7.69609545 3.74660188,7.60506876 L3.74660188,11.4507956 L3.74503453,11.4569746 C3.71727441,11.7579052 3.5521303,12.1267441 2.92097174,12.1776527 L2.90243485,12.1776527 C2.22033752,12.1267441 2.07680471,11.7517262 2.07680471,11.4430794 L2.07680471,8.69612308 C1.92558587,9.08500597 1.76044176,9.41372684 1.58450706,9.67915102 L1.58143265,9.68225557 C1.37155887,9.97236546 1.11692527,10.1158983 0.828322447,10.1158983 C0.698714911,10.1158983 0.561361065,10.0865708 0.417828255,10.0263786 L0.407037674,10.0202298 C0.103002509,9.85662292 -0.188644586,9.52793218 0.155478491,8.89210173 L0.158583043,8.8859529 C0.905484142,7.68684207 1.50427096,6.27324584 1.93791366,4.68678932 L0.772772054,4.68678932 C0.437902352,4.68678932 0.0397359475,4.54174945 0.0397359475,3.85344301 L0.0397359475,3.84418964 C0.0783167952,3.34263862 0.363815068,3.05867755 0.863828883,3.0200967 L2.07834191,3.0200967 L2.07834191,1.96454882 C1.95180879,1.98923454 1.79284364,2.01392025 1.60150675,2.03706876 L1.58761161,2.03860597 L1.08452339,2.03860597 C1.00425714,2.04632214 0.930199998,2.0525011 0.857649919,2.0525011 C0.269683828,2.0525011 0.0891375173,1.71298964 0.0412731531,1.42749137 L0.0397359475,1.41823799 L0.0397359475,1.40741727 C0.0397359475,0.876568917 0.337592148,0.537057457 0.902409731,0.424389325 L0.913200312,0.421314914 L1.32679906,0.421314914 C2.53359592,0.287035479 3.45338744,0.15124898 4.05832307,0.0169695447 L4.06603924,0.0154323391 C4.13548477,0.00464175824 4.20185588,0 4.26358524,0 C4.68797457,0 4.98272621,0.226843328 5.1154383,0.657411617 L5.12008006,0.67130675 L5.12008006,0.685201884 C5.15709356,1.1867529 4.89631114,1.51236923 4.36543265,1.62657457 C4.23115322,1.66051366 4.09382951,1.69448289 3.95955008,1.72842198 L3.94565494,1.73149639 L3.74660188,1.73149639 L3.74660188,3.0185595 L4.55215793,3.0185595 C4.78210581,3.0401708 5.04752998,3.140481 5.18488383,3.46148571 L5.18488383,1.61732119 C5.14937739,1.20372245 5.22346468,0.888896703 5.40865274,0.688276295 C5.58612464,0.493834851 5.86083234,0.402778022 6.22656672,0.421314914 L10.5506961,0.421314914 C11.0167708,0.402778022 11.3593567,0.50926719 11.5800512,0.736110518 C11.7729554,0.936730926 11.8640122,1.23304992 11.8454754,1.61421664 L11.8454754,5.98774757 C11.8670867,6.36737708 11.7822088,6.65751711 11.6078113,6.84116797 C11.4488763,7.00474474 11.2220028,7.09115981 10.9287884,7.09115981 C10.8747752,7.09115981 10.8161504,7.08498085 10.7559582,7.07880188 L6.12625651,7.07880188 C6.09692904,7.08651805 6.06760157,7.08651805 6.04137865,7.08651805 C5.77595447,7.08651805 5.56605055,7.00628195 5.42101067,6.85503297 C5.24507598,6.6698449 5.16791428,6.38127221 5.18488383,5.98928477 L5.18488383,4.26857896 C5.04599278,4.60501601 4.77438964,4.68678932 4.54136734,4.68678932 L3.74660188,4.68678932 L3.74660188,4.88279812 C3.83919592,5.00779403 3.93332716,5.13125275 4.02592119,5.25778587 C4.71573469,6.11892245 5.09846876,6.60196672 5.19877896,6.73467881 L5.20956954,6.75164835 C5.47345651,7.243946 5.43180125,7.66833532 5.08611083,8.01402575 L5.07685745,8.02327912 C4.91174348,8.154454 4.74506216,8.22236232 4.57994819,8.22236232 C4.35461193,8.22236232 4.13855918,8.09733626 3.93950612,7.8550606 L3.93640157,7.84888163 Z M6.88798129,5.18481381 C6.9095926,5.18481381 6.93581552,5.18170926 6.96360578,5.17863485 L6.98057533,5.17709765 L9.88339228,5.17709765 C9.9867769,5.17709765 10.0192089,5.14623297 10.0192089,5.04281821 L10.0192089,1.98567786 C10.0192089,1.95017143 10.0192089,1.88383046 9.86949715,1.85142857 L6.92963655,1.85142857 C6.8694444,1.85142857 6.79538726,1.85142857 6.79538726,2.03661664 L6.79538726,5.05363893 L6.79385005,5.06289231 C6.78302933,5.11997991 6.7907455,5.15394914 6.79999888,5.16473972 C6.80928239,5.17399309 6.83550531,5.18481381 6.88798129,5.18481381 Z" id="Combined-Shape"></path>
                        <path d="M7.70320454,8.43975636 C7.09052259,9.5632427 6.29421993,10.654297 5.34048931,11.6759359 L5.32969873,11.6851893 C5.09513923,11.881168 4.85283343,11.979941 4.61055776,11.979941 L4.60902055,11.979941 C4.39140046,11.979941 4.1722733,11.8981375 3.95929496,11.7422769 L3.95004159,11.7314863 L3.94078821,11.722233 C3.6969452,11.4537042 3.51639889,11.0184942 4.04727738,10.4860785 C4.74791161,9.78547441 5.44390407,8.81784867 6.11521082,7.61258901 L6.11674803,7.60487284 C6.3250846,7.26843579 6.58743437,7.09714286 6.89608115,7.09714286 C7.03650941,7.09714286 7.18465383,7.12954474 7.33897723,7.20209482 L7.35440956,7.21134819 C7.85134897,7.51535322 7.97170313,7.94130989 7.70320454,8.43975636 Z" id="Path"></path>
                        <path d="M11.7872858,11.6710287 L11.7764651,11.6772077 L11.7641373,11.6802821 C11.6530063,11.718863 11.5434428,11.7404743 11.4446698,11.7404743 C11.1576343,11.7404743 10.9261492,11.5830765 10.7548563,11.2697879 C10.0156412,10.0598865 9.36748296,9.08764915 8.82888829,8.37929876 C8.6745649,8.16788777 8.61440289,7.96880457 8.64987919,7.77590033 C8.68384842,7.57681713 8.82273947,7.39319641 9.06194073,7.23576846 L9.06501514,7.23576846 C9.4477492,7.00738793 9.86442236,7.06140112 10.2733793,7.39627082 L10.2857071,7.40552419 L10.2949605,7.41788212 C11.0064155,8.33300174 11.6622899,9.3824008 12.244077,10.5460052 L12.250256,10.5583631 C12.4014748,11.0213333 12.2410026,11.4040372 11.7872858,11.6710287 L11.7872858,11.6710287 Z" id="Path"></path>
                    </g>
                </g>
            </g>
        </g>
    </g>
</svg>