<?xml version="1.0" encoding="UTF-8"?>
<svg width="44px" height="37px" viewBox="0 0 44 37" version="1.1" xmlns="http://www.w3.org/2000/svg" xmlns:xlink="http://www.w3.org/1999/xlink">
    <!-- Generator: Sketch 44.1 (41455) - http://www.bohemiancoding.com/sketch -->
    <title>商铺</title>
    <desc>Created with Sketch.</desc>
    <defs></defs>
    <g id="K_积分兑换" stroke="none" stroke-width="1" fill="none" fill-rule="evenodd">
        <path d="M8.60970753,36.3317885 C8.08106771,36.3317885 7.65528718,35.9033811 7.65528718,35.377857 L7.65528718,21.9915775 C7.65528718,21.4603635 8.08391406,21.037646 8.60970753,21.037646 C9.13834734,21.037646 9.56697422,21.4603635 9.56697422,21.9915775 L9.56697422,35.3807018 C9.56697422,35.9033811 9.13834734,36.3317885 8.60970753,36.3317885 Z M35.3931388,36.3317885 C34.8674012,36.3317885 34.4358721,35.9033811 34.4358721,35.377857 L34.4358721,21.9915775 C34.4358721,21.4603635 34.8674012,21.037646 35.3931388,21.037646 C35.9246808,21.037646 36.3504055,21.4603635 36.3504055,21.9915775 L36.3504055,35.3807018 C36.3475592,35.9033811 35.9217786,36.3317885 35.3931388,36.3317885 Z M42.088313,36.3317885 L1.91453338,36.3317885 C1.38589357,36.3317885 0.960113042,35.9033811 0.960113042,35.377857 C0.960113042,34.846643 1.38873992,34.4182356 1.91453338,34.4182356 L42.0911593,34.4182356 C42.6226455,34.4182356 43.0455797,34.846643 43.0455797,35.377857 C43.0427333,35.9033811 42.6197991,36.3317885 42.088313,36.3317885 Z M44,13.3834346 C44,15.4969108 42.2854925,17.2105403 40.1737796,17.2105403 L38.2592462,17.2105403 C37.1190875,17.2105403 36.090383,16.7078868 35.3902925,15.9081931 C34.6902019,16.7078868 33.6643438,17.2105403 32.5213387,17.2105403 L31.5640721,17.2105403 C30.4210671,17.2105403 29.3952647,16.7078868 28.6951741,15.9081931 C27.9950836,16.7078868 26.9720718,17.2105403 25.8262204,17.2105403 L24.8689537,17.2105403 C23.7259487,17.2105403 22.7000906,16.7078868 22,15.9081931 C21.2999094,16.7078868 20.2768976,17.2105403 19.1310463,17.2105403 L18.1766259,17.2105403 C17.0307746,17.2105403 16.0078186,16.7078868 15.307728,15.9081931 C14.6047353,16.7078868 13.5817793,17.2105403 12.4359279,17.2105403 L11.4786613,17.2105403 C10.3327541,17.2105403 9.30979809,16.7078868 8.60970753,15.9081931 C7.90961696,16.7078868 6.88375881,17.2105403 5.7407538,17.2105403 L3.82622042,17.2105403 C1.71450751,17.2105403 0,15.4969108 0,13.3834346 L0.191486825,12.429503 L0,12.429503 L0.957266692,5.73781365 C0.957266692,2.56759923 3.5261816,-2.84217094e-14 6.69517414,-2.84217094e-14 L37.3048259,-2.84217094e-14 C40.4738184,-2.84217094e-14 43.0427333,2.56759923 43.0427333,5.73781365 L44,12.429503 L43.8114153,12.429503 L44,13.3834346 Z M41.1310463,5.73781365 C41.1310463,3.62433737 39.4165388,1.91355285 37.3048259,1.91355285 L6.69802049,1.91355285 C4.58346123,1.91355285 2.87180008,3.62433737 2.87180008,5.73781365 L1.91453338,12.429503 L2.10602021,12.429503 L1.91453338,13.3834346 C1.91453338,14.4401727 2.77178714,15.2969874 3.82622042,15.2969874 L5.7407538,15.2969874 C6.79803343,15.2969874 7.65528718,14.4401727 7.65528718,13.3834346 L7.65528718,9.56201866 C7.65528718,9.0308047 8.08391406,8.60239735 8.60970753,8.60239735 C9.13834734,8.60239735 9.56697422,9.0308047 9.56697422,9.56201866 L9.56697422,13.3834346 C9.56697422,14.4401727 10.424228,15.2969874 11.4786613,15.2969874 L12.4330258,15.2969874 C13.4903054,15.2969874 14.3447128,14.4401727 14.3447128,13.3834346 L14.3447128,9.56201866 C14.3447128,9.0308047 14.7733397,8.60239735 15.3019795,8.60239735 C15.8306193,8.60239735 16.2592462,9.0308047 16.2592462,9.56201866 L16.2592462,13.3834346 C16.2592462,14.4401727 17.1165,15.2969874 18.1709332,15.2969874 L19.1253536,15.2969874 C20.1826332,15.2969874 21.0370406,14.4401727 21.0370406,13.3834346 L21.0370406,9.56201866 C21.0370406,9.0308047 21.4656675,8.60239735 21.9943073,8.60239735 C22.5229471,8.60239735 22.9486718,9.0308047 22.9486718,9.56201866 L22.9486718,13.3834346 C22.9486718,14.4401727 23.8059256,15.2969874 24.8603589,15.2969874 L25.8176256,15.2969874 C26.8749052,15.2969874 27.7321589,14.4401727 27.7321589,13.3834346 L27.7321589,9.56201866 C27.7321589,9.0308047 28.1607858,8.60239735 28.6894256,8.60239735 C29.2209118,8.60239735 29.643846,9.0308047 29.643846,9.56201866 L29.643846,13.3834346 C29.643846,14.4401727 30.5010997,15.2969874 31.5583794,15.2969874 L32.515646,15.2969874 C33.5700793,15.2969874 34.4273331,14.4401727 34.4273331,13.3834346 L34.4273331,9.56201866 C34.4273331,9.0308047 34.8588063,8.60239735 35.3845998,8.60239735 C35.9160859,8.60239735 36.3418665,9.0308047 36.3418665,9.56201866 L36.3418665,13.3834346 C36.3418665,14.4401727 37.1991202,15.2969874 38.2535535,15.2969874 L40.1680869,15.2969874 C41.2224644,15.2969874 42.0826203,14.4401727 42.0826203,13.3834346 L41.8939798,12.429503 L42.0826203,12.429503 L41.1310463,5.73781365 Z M29.6524408,34.4182356 L29.6524408,26.769714 C29.6524408,26.2385001 29.2295067,25.8100927 28.6980205,25.8100927 L25.8262204,25.8100927 C25.300427,25.8100927 24.8689537,26.2385001 24.8689537,26.769714 L24.8689537,34.4182356 L22.9572667,34.4182356 L22.9572667,25.8100927 C22.9572667,24.7561995 23.8145204,23.9022854 24.8689537,23.9022854 L29.6524408,23.9022854 C30.7097205,23.9022854 31.5669742,24.7561995 31.5669742,25.8100927 L31.5669742,34.4182356 L29.6524408,34.4182356 Z M27.7407538,32.5103726 C27.212114,32.5103726 26.7834871,32.0819652 26.7834871,31.5507513 C26.7834871,31.0195373 27.212114,30.5968197 27.7407538,30.5968197 C28.27224,30.5968197 28.6980205,31.0195373 28.6980205,31.5507513 C28.6980205,32.0819652 28.2693936,32.5103726 27.7407538,32.5103726 L27.7407538,32.5103726 Z" id="商铺" fill="#34C8EF"></path>
    </g>
</svg>